<svg xmlns="http://www.w3.org/2000/svg" viewBox="0 0 112.95 112.95">
  <defs>
    <style>
      .a {
        fill: #fdea8a;
      }

      .b {
        fill: #f8b833;
      }

      .c {
        fill: #fcd637;
      }

      .d {
        fill: #fffeff;
      }

      .e {
        fill: #333;
      }
    </style>
  </defs>
  <g>
    <g>
      <path class="a" d="M112.45,56.48a55.94,55.94,0,1,1-3.64-19.89A56,56,0,0,1,112.45,56.48Z"/>
      <path class="b" d="M112.45,56.48A56,56,0,0,1,7.85,84.22a60.17,60.17,0,0,0,103.66-38A56,56,0,0,1,112.45,56.48Z"/>
      <path class="c" d="M111.51,46.2v0a60.17,60.17,0,0,1-103.66,38A55.48,55.48,0,0,1,1.07,64.47C14.93,54.33,32.83,45.9,53.14,40.75c19.76-5,39-6.22,55.67-4.16A55.34,55.34,0,0,1,111.51,46.2Z"/>
    </g>
    <path class="d" d="M80.94,16.28A58.74,58.74,0,0,0,11.13,42.55,47.45,47.45,0,0,1,80.94,16.28Z"/>
    <path class="e" d="M0,56.48A56.48,56.48,0,1,0,56.48,0,56.33,56.33,0,0,0,0,56.48ZM108.34,36.77A55.49,55.49,0,0,1,56.48,112a55.48,55.48,0,1,1,51.86-75.18Z"/>
    <ellipse class="e" cx="72.89" cy="45.74" rx="6.17" ry="13.65"/>
    <ellipse class="e" cx="39.87" cy="45.74" rx="6.17" ry="13.65"/>
    <path class="e" d="M32.45,79.52a27.33,27.33,0,0,0,50.77,0,28.79,28.79,0,0,1-50.77,0Z"/>
  </g>
</svg>
