<svg xmlns="http://www.w3.org/2000/svg" xmlns:xlink="http://www.w3.org/1999/xlink" viewBox="0 0 112.9 33.1">
  <defs>
    <style>
      .a {
        fill: none;
      }

      .b {
        clip-path: url(#a);
      }

      .c {
        fill: #333;
      }
    </style>
    <clipPath id="a" transform="translate(0 0.1)">
      <rect class="a" width="112.9" height="33"/>
    </clipPath>
  </defs>
  <g class="b">
    <g>
      <path class="c" d="M13.5,22.4c0,1.8.1,4.7,2.6,4.7,3.3,0,2.9-4.3,2.9-6.6a27.9,27.9,0,0,0-.2-5c-.4-2.3-2.6-1.5-2.6-3.5,0-2.7,9.3-3.2,11.1-3.2s2.4,1,2.4,2.6-.1,2.9-.1,4.4v9.3c0,2.8,2.6,1.5,2.6,3.7,0,3.1-8.2,4-10.8,4-3.6,0-1.2-2.8-3.1-2.8-.5,0-1.3.7-2.4,1.4a8.56,8.56,0,0,1-4.6,1.4C2.5,32.9,3.2,26,3.2,19S0,15,0,12,11.7,8.9,12.1,8.9c1.3,0,1.4.6,1.4,1.8Z" transform="translate(0 0.1)"/>
      <path class="c" d="M46,9c.8.1,1.6.3,1.9.3A3.08,3.08,0,0,0,49.2,9a5,5,0,0,1,1.3-.3c2.1,0,4.3,4.2,4.3,6.1a2.57,2.57,0,0,1-.7,1.6,2.27,2.27,0,0,1-1.6.6c-2.6,0-4.1-3.6-6.2-3.6A1.72,1.72,0,0,0,44.7,15c0,3,10.2,3.5,10.2,10.7,0,4.3-4.2,7.3-9,7.3a18.7,18.7,0,0,1-3.4-.3c-1.2-.1-2.2-.3-2.5-.3a2.77,2.77,0,0,0-.9.1,2.77,2.77,0,0,1-.9.1,2,2,0,0,1-1.1-.2,2.18,2.18,0,0,1-.9-.7A10.66,10.66,0,0,1,33.9,26c0-1.2.4-2.2,1.8-2.2,2,0,3.9,4.5,6.5,4.5A1.61,1.61,0,0,0,44,26.8c0-2.7-9.1-3-9.1-10.7,0-4.6,3.8-7.5,8.6-7.5.6.1,1.6.2,2.5.4Z" transform="translate(0 0.1)"/>
      <path class="c" d="M68.1,21.7c-.5,0-1.3-.1-1.3.6,0,2.3,3,4.2,5.2,4.2,3.5,0,5.2-2.1,6.2-2.1S80,25.8,80,26.7c0,3.6-6.5,6.1-10.7,6.1-8.4,0-12.7-6-12.7-12,0-7.1,6.1-12.3,13.1-12.3,7.9,0,11.4,6,11.4,9.5,0,3.1-1.4,3.5-2.9,3.5H68.1Zm4-5.8a2.71,2.71,0,0,0-2.7-3,3.12,3.12,0,0,0-2.8,3c0,1.7,1.6,1.3,2.8,1.3s2.7.4,2.7-1.3Z" transform="translate(0 0.1)"/>
      <path class="c" d="M110.4,24.5c0,3.2,2.5,2.2,2.5,4.5,0,3.5-10.2,3.7-10.7,3.7-2.4,0-.7-2.5-2.2-2.5-.4,0-1.1.6-2.2,1.3a8.21,8.21,0,0,1-4.6,1.3c-6.1,0-10.8-6.4-10.8-12.1,0-6.1,5-12.1,11.4-12.1,3.2,0,5,1.4,5.5,1.4.7,0,.7-1.5.7-2,0-2.9-3.4-1.3-3.4-3.8,0-3.4,11.8-4.3,12-4.3,1.4,0,1.7,1,1.7,2.5ZM97.5,13.8c-3.1,0-3.7,5.3-3.7,7.5s.6,6,3.4,6c3.1,0,2.9-5.7,2.9-7.7s.1-5.8-2.6-5.8Z" transform="translate(0 0.1)"/>
    </g>
  </g>
</svg>
