<svg xmlns="http://www.w3.org/2000/svg" viewBox="0 0 172.02 246.31">
  <defs>
    <style>
      .a {
        opacity: 0.89;
      }

      .b {
        fill: #232323;
      }

      .c {
        fill: #fb1e1d;
      }

      .d {
        fill: #b91313;
      }

      .e {
        fill: #fdea8a;
      }

      .f {
        fill: #f8b833;
      }

      .g {
        fill: #fcd637;
      }

      .h {
        fill: #fffeff;
      }

      .i {
        fill: #333;
      }
    </style>
  </defs>
  <g>
    <g>
      <g class="a">
        <path class="b" d="M169.86,157a17.65,17.65,0,0,0-3.54-6.45,1.45,1.45,0,0,1-.18-.16,53.16,53.16,0,0,0-.4-5.91,32.07,32.07,0,0,0-4-12.46,25.63,25.63,0,0,0-5.46-7.17,17.38,17.38,0,0,0,2.36-8.16,10.87,10.87,0,0,0-.13-2,11.64,11.64,0,0,0,1.28-2.88,13.11,13.11,0,0,0-.4-7.23c.12-.53.22-1.06.33-1.58a16.09,16.09,0,0,0-.29-8,12.27,12.27,0,0,0,1.47-3.46c.84-3.47-.08-7.15-1.19-10.47l-.29-.74c.05-.24.1-.49.13-.74a34.71,34.71,0,0,0,.18-4.21,25.12,25.12,0,0,0-.51-5.6c-.25-1-.52-1.9-.83-2.84a21.67,21.67,0,0,0-2.9-5.61,10.41,10.41,0,0,0,.16-4.48,22.37,22.37,0,0,0-1.12-4.4c-1.57-4.06-4.27-6.24-7.86-8.6a17.46,17.46,0,0,0-4.26-2.12,11.5,11.5,0,0,0-2.87-2.33,14.63,14.63,0,0,0-5.5-2.2,15.07,15.07,0,0,0-7.73.74,23.41,23.41,0,0,0-11.16-.47,20.23,20.23,0,0,0-10.21,5.76,13.59,13.59,0,0,0-3.24,1.55,27.68,27.68,0,0,0-5.78,4.66,25.94,25.94,0,0,0-5.12,8c-.3.17-.57.33-.84.51-.2-.88-.43-1.75-.7-2.62A33,33,0,0,0,86.19,48l-.4-.67a20,20,0,0,0-1-4,25.19,25.19,0,0,0-5.07-8.4A27,27,0,0,0,75.8,31.7a39.92,39.92,0,0,0-2.28-4.81A37.46,37.46,0,0,0,70.26,22a35.14,35.14,0,0,0-8.37-7.17A16.88,16.88,0,0,0,58.7,10,22.31,22.31,0,0,0,51.54,4.9a26.19,26.19,0,0,0-8.27-2.62c-.92-.1-1.84-.14-2.75-.15A16.51,16.51,0,0,0,37.91,1a22.47,22.47,0,0,0-8.48-.9A24,24,0,0,0,13.35,7.6,22.93,22.93,0,0,0,7.62,18.54,29.08,29.08,0,0,0,7,25c0,.34,0,.68,0,1a14.61,14.61,0,0,0-1.38,2.77c-2,4.95-1.3,14,.45,19a37.07,37.07,0,0,0,8.36,13.83c-1.06,8.8,7.75,17.14,16.21,19.83.08.42.15.86.25,1.29a37.62,37.62,0,0,0,2.49,7.12,22.75,22.75,0,0,0,2.17,3.89,44.46,44.46,0,0,0,11.08,11.19l1.16.76q-1,.51-2.07,1.08a37.44,37.44,0,0,0-12.14,10.89,30.94,30.94,0,0,0-4.17,7.68c-.5.39-1,.8-1.49,1.22-5.33,4.91-9.91,12.77-11.15,19.83-.19,1.12-.31,2.24-.4,3.37-.46.82-.91,1.66-1.3,2.53a30.07,30.07,0,0,0-2.2,9.62,41.35,41.35,0,0,0,0,4.59,24.6,24.6,0,0,0,3.41,11.91,30.56,30.56,0,0,0,4.91,18.31c0,.34.05.66.1,1a25.85,25.85,0,0,0,2.77,8.58,19.32,19.32,0,0,0,3.17,4.53,26.79,26.79,0,0,0,5.88,4.65A23,23,0,0,0,35,219.82,33,33,0,0,0,42.78,230a37.12,37.12,0,0,0,9.46,5.46l.5.66c4.95,6.42,13.45,9.28,21.46,9.5a21.06,21.06,0,0,0,8.68-1.24,27.49,27.49,0,0,0,9.25,1.93c.47,0,1,0,1.43,0,1.83,0,3.66-.12,5.48-.29a30,30,0,0,0,6.7-1.42,22.34,22.34,0,0,0,6.58-3.11l.14-.1a24.53,24.53,0,0,0,4.14-.77,28.45,28.45,0,0,0,3.77-1.5,26.85,26.85,0,0,0,6.43-4.65c.59-.58,1.19-1.18,1.76-1.8a25.22,25.22,0,0,0,5.19-1.77c5.68-2.64,9.77-5.81,12.51-10.7a25.59,25.59,0,0,0,2.37-1.13,34.39,34.39,0,0,0,3.58-2.52,25,25,0,0,0,8.2-10.09c.25-.58.47-1.17.67-1.76.18-.17.34-.35.51-.53a30.87,30.87,0,0,0,5.84-9.12,22.66,22.66,0,0,0,1.48-4.65,24.22,24.22,0,0,0,.42-4,49.66,49.66,0,0,0,0-6.1,28.13,28.13,0,0,0-.51-4.38,29.3,29.3,0,0,0,1.8-5.48,28.45,28.45,0,0,0,.47-6.77A27.9,27.9,0,0,0,169.86,157Z"/>
        <polygon class="b" points="172.02 202.05 172.02 202.05 172.03 202.05 172.02 202.05"/>
      </g>
      <g>
        <path class="c" d="M148.74,152.32A71.4,71.4,0,0,1,14.08,185.43c-.69-1.31-1.34-2.65-1.95-4,0-.27,0-.54,0-.81,1.08,1.41,2.56,3.34,4.19,4a.65.65,0,0,0,.16,0,.15.15,0,0,0,.17-.12c0-.07-.07-.23-.17-.17a18.26,18.26,0,0,1-3.9-4.41l-.39-.62a.28.28,0,0,0,0-.09h0a.43.43,0,0,1-.11-.12,2.93,2.93,0,0,1-.23-.43l-.18-.34-.18-.35,0-.05V178a26.49,26.49,0,0,1-1.87-5.18,33.37,33.37,0,0,1,0-14.14,26.67,26.67,0,0,1,1.68-5.36c0,.78,0,1.56,0,2.35a27.77,27.77,0,0,0,1.55,9.56.12.12,0,0,0,.11.13h0a.1.1,0,0,0,.07-.16.59.59,0,0,0,0-.14c0-.2-.05-.4-.07-.6-.2-1.26-.42-2.52-.55-3.8a48.6,48.6,0,0,1,.23-12.58,24.65,24.65,0,0,1,.93-3.86,30.78,30.78,0,0,1,2.63-6.11,34.25,34.25,0,0,1,6.47-8.74l.81-.72c0,.16-.09.31-.13.46a18.88,18.88,0,0,0-.91,7.07,12.28,12.28,0,0,0,.22,1.48,3.77,3.77,0,0,0,.35,1.14.16.16,0,0,0,.13.08.16.16,0,0,0,.14-.19c0-.46,0-.92,0-1.39,0-.88,0-1.68,0-2.59s.17-1.69.28-2.53a23.13,23.13,0,0,1,1.33-4.68c.1-.28.21-.56.32-.83l0,0v0s0-.1.07-.15l0-.09.08-.15,0,0a31.59,31.59,0,0,1,2.19-4.2,35,35,0,0,1,10-10.65,36.07,36.07,0,0,1,4.49-2.73c.95.62,1.91,1.22,2.9,1.78a20.66,20.66,0,0,0,2.91,1.43,5.79,5.79,0,0,0,1.86.51h.06a.13.13,0,0,0,.13-.14.12.12,0,0,0-.18-.12A16.43,16.43,0,0,1,47.69,111c-1.2-.74-2.42-1.43-3.58-2.2l-.93-.62.2-.08-.08,0,0,0-.09-.06-.48-.31h0l0,0-.19.08a42.37,42.37,0,0,1-8.07-6.86A41.26,41.26,0,0,1,30,95a34.43,34.43,0,0,1-3.69-9.81c0-.16-.07-.33-.1-.49q.52.14,1.05.24a.48.48,0,0,0,.22-.94c-.37-.08-.74-.18-1.1-.29L26,83.62s0,0,0,0l0,0a22.77,22.77,0,0,1-5-2.22C15.75,78,10.08,72.24,10.3,65.73c.58.54,1.19,1.06,1.83,1.55a21.16,21.16,0,0,0,3.41,2.21,2.85,2.85,0,0,0,1,.36l.07,0a.14.14,0,0,0,0-.28,27.65,27.65,0,0,1-2.33-1.74A32.3,32.3,0,0,1,11,65.06l-.55-.55A9.67,9.67,0,0,1,10.73,63a6.3,6.3,0,0,1,.59-1.53.34.34,0,0,0-.08-.47c-.67-.28-.89,1-1.16,1.47a12,12,0,0,0-.35,1.27,32.39,32.39,0,0,1-4.61-6.85,34.69,34.69,0,0,1-3.38-8.8,38.08,38.08,0,0,1-.68-9.94,18.84,18.84,0,0,1,.53-3.73,13.5,13.5,0,0,1,.93-2.56c0,.7.12,1.4.23,2.1a29.69,29.69,0,0,0,2.41,7.57A38.68,38.68,0,0,0,7.5,46.26a.1.1,0,0,0,.11.11.1.1,0,0,0,.07,0,.11.11,0,0,0,0-.19,51.47,51.47,0,0,1-4.06-11,32,32,0,0,1-.46-5.78,35.76,35.76,0,0,1,.22-4.26A22.55,22.55,0,0,1,7.56,14.35,23.52,23.52,0,0,1,16.7,7.17,19.79,19.79,0,0,1,23,5.71,21.74,21.74,0,0,1,31.8,6.78a19.72,19.72,0,0,0-3,.52A16.09,16.09,0,0,0,26.68,8a2.68,2.68,0,0,0-.83.49.15.15,0,0,0-.09.25A.15.15,0,0,0,26,8.69a10.56,10.56,0,0,1,2.21-.64A23.51,23.51,0,0,1,39,8a24.41,24.41,0,0,1,6.35,2.6A23.81,23.81,0,0,1,49,13a18.22,18.22,0,0,1,4,5c-.87-.48-1.75-.93-2.66-1.34a7.83,7.83,0,0,0-1.89-.65.11.11,0,1,0,0,.22,35.46,35.46,0,0,1,11,7.8,36.86,36.86,0,0,1,5.43,7.41,30.91,30.91,0,0,1,1.44,3c-1-.65-2.14-1.23-3.24-1.77-.33-.17-4.06-1.76-3.82-.94a20.49,20.49,0,0,1,4.49,2,27.07,27.07,0,0,1,8.71,7.46,23.2,23.2,0,0,1,2.35,4.29,19.51,19.51,0,0,1,1,2.53,19.71,19.71,0,0,0-4.49-4.71c-.16-.09-.87-.55-.92-.19a.16.16,0,0,0,.15.16c.71.7,1.44,1.42,2.12,2.15.94,1.07,1.82,2.18,2.66,3.33a36.08,36.08,0,0,1,2.27,3.71h0s0,0,0,.06l0,0,.18.45v-.15c.46.9.88,1.81,1.27,2.75a31.79,31.79,0,0,1,1.74,6.28v0c-.37.29-.71.57-1,.85a14.55,14.55,0,0,0-3.4,5.16,27.72,27.72,0,0,0-2,9.81,20.53,20.53,0,0,0-3.52,10.32c-.06.67-.1,1.35-.1,2a11.42,11.42,0,0,0-.91,1.49,13.18,13.18,0,0,0-.52,11,14.3,14.3,0,0,0,3.28,5.65,10.44,10.44,0,0,0,3.66,2.33A17.78,17.78,0,0,0,77.52,112a19.32,19.32,0,0,0,11.85,5.6,18.58,18.58,0,0,0,2,.11,15.29,15.29,0,0,0,8.41-2.36l.54-.37a10.75,10.75,0,0,0,2,.37c.33,0,.67,0,1,0a14.26,14.26,0,0,0,7.55-2.15,13.25,13.25,0,0,0,5-6.28,2.44,2.44,0,0,1,.1-.24,20.63,20.63,0,0,0,3.56-.9,9.53,9.53,0,0,0,6-6.12,12.12,12.12,0,0,0,.56-3.16,14.21,14.21,0,0,0,2.92-6.2,17.83,17.83,0,0,0,.37-5.41c-.07-.61-.18-1.23-.31-1.83-.06-.31-.14-.62-.23-.92a.34.34,0,0,0-.66.19c.1.42.19.84.25,1.27a15.31,15.31,0,0,1,.17,2,22,22,0,0,1-.64,5.59,12.58,12.58,0,0,1-3,5.66,6.91,6.91,0,0,1-3.13,2.09.16.16,0,0,0-.22.16.16.16,0,0,0,.22.13,1.2,1.2,0,0,0,.38,0,5.83,5.83,0,0,0,3-1.72,9.62,9.62,0,0,1-3.53,5.78,12.82,12.82,0,0,1-4.57,2.08,16,16,0,0,1-3,.48,6.26,6.26,0,0,1-.75,0,3.37,3.37,0,0,0-1,.08.19.19,0,0,0-.24.2.2.2,0,0,0,.26.2,5.36,5.36,0,0,0,1.68.4l.61,0h.21a12.24,12.24,0,0,1-2.33,3.6,13.86,13.86,0,0,1-6.79,3.42,12.46,12.46,0,0,1-5.23,0,8,8,0,0,1-2.57-.89.23.23,0,0,0-.35.31,4.72,4.72,0,0,0,1.76,1.32,16,16,0,0,1-4.79,1.7,21,21,0,0,1-9.61-.82,16.82,16.82,0,0,1-6.23-4,16.32,16.32,0,0,1-3.26-4.87,8.28,8.28,0,0,1-.73-2.39.51.51,0,0,0-1,.11,11.53,11.53,0,0,0,1.45,4.26,12.56,12.56,0,0,1-3-2.94,15.55,15.55,0,0,1-2.49-10,10.66,10.66,0,0,1,1.32-3.82l0,0A12.56,12.56,0,0,0,71.55,95c.2.5.54,1.46,1.06,1.68h0a.16.16,0,0,0,.15-.07c.08-.15-.08-.25-.14-.37a4.56,4.56,0,0,1-.39-1,22.8,22.8,0,0,1-.36-6.75,22.21,22.21,0,0,1,.66-4.25,19,19,0,0,1,1.16-3.1c.19-.38.4-.76.61-1.13,0,.49,0,1,0,1.49,0,.34,0,.69,0,1a.5.5,0,0,0,.19.38.48.48,0,0,0,.29.11.49.49,0,0,0,.49-.55c0-.32-.05-.63-.07-.95a41.71,41.71,0,0,1,.73-8.85,24.12,24.12,0,0,1,1.34-4.25,16.12,16.12,0,0,1,2.14-3.82,14.24,14.24,0,0,1,2.34-2.38c-.11.28-.2.57-.3.86a14.78,14.78,0,0,0-.83,5.34.2.2,0,0,0,0,.21c.2.21.48-.12.26-.28a26.11,26.11,0,0,1,1.07-3.67,32.63,32.63,0,0,1,2.44-5.6,27.59,27.59,0,0,1,7.1-8,21.58,21.58,0,0,1,4.1-2.58,11,11,0,0,1,2.6-.66,10,10,0,0,1,1.1-.07.67.67,0,0,0,.46-.15.63.63,0,0,0-.37-1.09,14.18,14.18,0,0,0-2.06.06l.85-.73A18.1,18.1,0,0,1,103,43a21,21,0,0,1,15.38.43,25.51,25.51,0,0,1,9.75,6.77.12.12,0,0,0,.11.09.12.12,0,0,0,.1-.19c-.48-1.74-3.61-4.1-5.16-5.08A23.93,23.93,0,0,0,118,42.26l.52-.11a20.34,20.34,0,0,1,3.4-.17,11.37,11.37,0,0,1,3.82.78,14.9,14.9,0,0,1,3.24,2c-.44-.07-.89-.12-1.36-.17a.37.37,0,0,0-.38.33c0,.45.49.38.79.44a21.43,21.43,0,0,1,2.51.5.63.63,0,0,1,.38,0l.71.28.08,0a.33.33,0,0,1,.13.07l.35.14a22.77,22.77,0,0,1,4.8,3A22.22,22.22,0,0,1,139,51.26a15.1,15.1,0,0,1,3.76,6.63,20.86,20.86,0,0,1,.73,5,6.36,6.36,0,0,1-.06.87,13.84,13.84,0,0,0-2.8-2.54,12.8,12.8,0,0,0-1.19-.7,2.58,2.58,0,0,0-1.2-.39.2.2,0,0,0-.23.3.2.2,0,0,0,.3,0,5.22,5.22,0,0,1,1.17.67,15.68,15.68,0,0,1,4.28,4.68,19.16,19.16,0,0,1,2.15,4.72A25.13,25.13,0,0,1,147,75.55a26,26,0,0,1,0,5.58c-.25-.53-.52-1-.82-1.55a.43.43,0,0,0-.73.44,7.16,7.16,0,0,1,.45.87,38.74,38.74,0,0,1,2,6.12c1.29,5.7.44,9.67-3.55,14a.27.27,0,0,0-.15,0,.26.26,0,0,0-.13.32.26.26,0,0,0,.45.06,5,5,0,0,0,2-1.7c.29-.37.57-.75.83-1.14a17.88,17.88,0,0,1,.08,4.2c-.05.67-.13,1.35-.23,2a.36.36,0,0,0-.67.24q.14.39.24.78a28.14,28.14,0,0,1,.66,2.89,12.39,12.39,0,0,1-.17,5.65,14.88,14.88,0,0,1-2.15,4.17,15.5,15.5,0,0,1-1.11,1.32c-.33.36-.71.66-1,1a.15.15,0,0,0-.08.25.15.15,0,0,0,.25,0,10.16,10.16,0,0,0,3.17-3,20.52,20.52,0,0,1-.46,3,26.77,26.77,0,0,1-.91,3.14,13.5,13.5,0,0,1-.7,1.61l-.16.28-.48-.38c-.36-.3-.74-.59-1.12-.87a15.06,15.06,0,0,0-2.45-1.62.1.1,0,0,0-.09.07c0,.05,0,.12.08.12,1.35,1.43,2.91,2.63,4.26,4.06a69.22,69.22,0,0,1,2.42,8A71.13,71.13,0,0,1,148.74,152.32Z"/>
        <path class="d" d="M154.57,171.3a28.22,28.22,0,0,1,1.75,7.36,38.85,38.85,0,0,1,.28,6.38,27.5,27.5,0,0,1-2.06,10.52,29.31,29.31,0,0,1-2.37,4.46,32.24,32.24,0,0,1-2,2.91,15.73,15.73,0,0,0,.33-2.48,11.76,11.76,0,0,0-.11-3,.22.22,0,1,0-.31.13,5.23,5.23,0,0,1,0,1.25,24,24,0,0,1-.45,3.16,23.07,23.07,0,0,1-1.52,4.54l-.12.2a.21.21,0,0,0,0,.06l.06-.06a24.55,24.55,0,0,1-2,3.57,27.56,27.56,0,0,1-6.59,6.65,27.11,27.11,0,0,1-3.38,2.24,26.35,26.35,0,0,0,1.29-3.28,28.79,28.79,0,0,0,.81-3.42c0-.24.36-1.28-.05-1.27a.2.2,0,0,0-.2.17c-.13.27-.22.56-.33.83-.39,1-.79,2.06-1.15,3.1a29.64,29.64,0,0,1-2.27,5.23,1.09,1.09,0,0,1-.08.15l-.33.67c-.1.2-.19.41-.3.62a.57.57,0,0,1-.36.28,17.8,17.8,0,0,1-3.94,4.19,31.83,31.83,0,0,1-8.22,4.47l-1.38.46a12.92,12.92,0,0,0,2.41-4.83.18.18,0,0,0-.1-.32.17.17,0,0,0-.16.26,24.79,24.79,0,0,1-2.71,4.09c-.61.78-1.26,1.54-1.93,2.28a.92.92,0,0,1-.23.09.55.55,0,0,1-.22,0l0,0h0l.22,0a1,1,0,0,0,.17,0,28.18,28.18,0,0,1-3.35,3.11,22.28,22.28,0,0,1-7.74,3.91c-.57.15-1.14.27-1.72.37a11.17,11.17,0,0,0,1.42-1.5c.14-.21.47-.6.37-.86,0-.1-.15-.08-.22,0s-.19.1-.16.2a21.71,21.71,0,0,1-6,4.15,36.21,36.21,0,0,1-7.74,2.42,37.16,37.16,0,0,1-7,.53,27.51,27.51,0,0,1-8.94-1.64l.2-.11c.17-.12.73-.46.56-.7-.07-.06-.21-.08-.26,0a17.81,17.81,0,0,1-2.44.89h0c-3.82,1-7.83.72-11.71.22h0l-.18,0a28.42,28.42,0,0,1-6.93-2A22.36,22.36,0,0,1,49,237.92c-.72-.7-1.47-1.39-2.13-2.15a33,33,0,0,0,8.59,1.92c.27,0,.55,0,.82,0,.44,0,.88,0,1.31,0a.28.28,0,0,0,.41-.27.26.26,0,0,0-.33-.22l-.13.05a2.44,2.44,0,0,1-.47,0,34.43,34.43,0,0,1-4.61-.79,41.26,41.26,0,0,1-6.54-2,.32.32,0,0,0-.36-.14c-7.89-3.28-13.49-9-16.73-17.83.36.19.72.36,1.08.53a20.3,20.3,0,0,0,2.34.84,24,24,0,0,0,3.31.84l.09,0a.13.13,0,0,0,0-.25,26.63,26.63,0,0,0-2.71-1.12A30.17,30.17,0,0,1,27.75,215a23.11,23.11,0,0,1-6.56-5.86A23.65,23.65,0,0,1,17.1,199a23.88,23.88,0,0,0,3.06,3.37c.43.39.86.77,1.31,1.13a4.52,4.52,0,0,1,.7.6.23.23,0,0,0,.16.07.22.22,0,0,0,.1-.41,5.52,5.52,0,0,1-1.11-1c-.85-.9-1.67-1.84-2.44-2.81-.56-.73-1.1-1.48-1.6-2.25l-.09-.13c-.1-.13-.2-.26-.29-.4a9.1,9.1,0,0,1-.51-.8.64.64,0,0,1-.08-.14l-.29-.4-.19-.27a1.06,1.06,0,0,1-.27-.63s0-.09,0-.13a29.5,29.5,0,0,1-3.45-13.3c.61,1.36,1.26,2.7,1.95,4A71.4,71.4,0,0,0,146.73,135.5a69.22,69.22,0,0,0-2.42-8l.18.19a33.79,33.79,0,0,1,6.43,10.73,42.41,42.41,0,0,1,2.07,10.7c0,.51.08,1,.1,1.54a5,5,0,0,0-1.39-.95c-.09,0-.24-.14-.32,0s0,.18.1.14l.12.06.87.92a18.68,18.68,0,0,1,2,2.33,20.3,20.3,0,0,1,2.19,4.52,24.7,24.7,0,0,1,.39,16.32c-.16.48-.33,1-.51,1.43a27.64,27.64,0,0,0-1.24-3.44c-.14-.29-.26-.59-.43-.87a.2.2,0,0,0-.1-.15C154.55,170.83,154.36,171.18,154.57,171.3Z"/>
        <path class="d" d="M143.23,174.89a61.54,61.54,0,0,1-121.35,14.5,61.55,61.55,0,0,0,114.34-43A61.2,61.2,0,0,1,143.23,174.89Z"/>
        <g>
          <path class="e" d="M137.76,176.43a55.94,55.94,0,1,1-3.64-19.89A56,56,0,0,1,137.76,176.43Z"/>
          <path class="f" d="M137.76,176.43a56,56,0,0,1-104.6,27.74,60.17,60.17,0,0,0,103.66-38A56,56,0,0,1,137.76,176.43Z"/>
          <path class="g" d="M136.82,166.15v0a60.17,60.17,0,0,1-103.66,38,55.48,55.48,0,0,1-6.78-19.75c13.86-10.14,31.76-18.57,52.07-23.72,19.76-5,39-6.22,55.67-4.16A55.34,55.34,0,0,1,136.82,166.15Z"/>
        </g>
        <path class="h" d="M106.25,136.23a58.74,58.74,0,0,0-69.81,26.28,47.44,47.44,0,0,1,69.81-26.28Z"/>
        <path class="d" d="M116.53,233a.55.55,0,0,0,.22,0l-.22,0h0Z"/>
        <path class="d" d="M128.48,95.75a11.47,11.47,0,0,1-1.83,1.67,10.27,10.27,0,0,1-6.08,10.63,10.93,10.93,0,0,1-4.86,1,10.48,10.48,0,0,1-6,7.56,10.87,10.87,0,0,1-5.46,1,10.32,10.32,0,0,1-4.88-1.67l-.23-.15a10.77,10.77,0,0,1-.93-.74c.31-.14.62-.3.92-.46a4.69,4.69,0,0,1-1.75-1.31.23.23,0,0,1,.35-.31,8,8,0,0,0,2.57.89,12.46,12.46,0,0,0,5.23,0,13.86,13.86,0,0,0,6.79-3.42,12.06,12.06,0,0,0,2.32-3.61l-.2,0c-.2,0-.41,0-.61,0a5.09,5.09,0,0,1-1.68-.39.2.2,0,0,1-.26-.2.19.19,0,0,1,.24-.2,3.37,3.37,0,0,1,1-.08,6.26,6.26,0,0,0,.75,0,16,16,0,0,0,3-.48,12.82,12.82,0,0,0,4.57-2.08A9.63,9.63,0,0,0,125,97.61a5.88,5.88,0,0,1-3,1.72,1.6,1.6,0,0,1-.38,0,.16.16,0,0,1-.22-.13.15.15,0,0,1,.22-.16A6.91,6.91,0,0,0,124.8,97a12.63,12.63,0,0,0,3-5.66,22,22,0,0,0,.64-5.59,15.31,15.31,0,0,0-.17-2c-.06-.43-.15-.85-.25-1.27a.34.34,0,0,1,.18-.38,6.47,6.47,0,0,1,.61.67A10.11,10.11,0,0,1,128.48,95.75Z"/>
        <path class="i" d="M128.73,82.21a.35.35,0,0,0-.44-.21l0,0a6.47,6.47,0,0,1,.61.67C128.82,82.53,128.78,82.37,128.73,82.21Zm14.07,84.72c0,.56,0,1.12,0,1.69a59.52,59.52,0,0,1-.52,7.83v.05a60.55,60.55,0,0,1-120.8,4.25h0a58.38,58.38,0,0,1-1.18-9.23c-.06,1.12-.09,2.25-.09,3.38a61.54,61.54,0,1,0,122.56-8Zm-36.33-53.29c.63.27,1.25.56,1.86.85a13.59,13.59,0,0,0,2.48-1.22,13.21,13.21,0,0,0,5-6.28c0-.08.06-.16.1-.25a20.6,20.6,0,0,0,3.56-.89,9.53,9.53,0,0,0,6-6.12,12.55,12.55,0,0,0,.56-3.16,14.16,14.16,0,0,0,2.92-6.2,17.83,17.83,0,0,0,.37-5.41c-.07-.61-.18-1.23-.31-1.83,0-.15-.06-.3-.1-.44s-.08-.32-.13-.48a.35.35,0,0,0-.44-.21l0,0a.34.34,0,0,0-.18.38c.1.42.19.84.25,1.27a15.31,15.31,0,0,1,.17,2,22,22,0,0,1-.64,5.59,12.63,12.63,0,0,1-3,5.66,6.91,6.91,0,0,1-3.13,2.09.15.15,0,0,0-.22.16.16.16,0,0,0,.22.13,1.6,1.6,0,0,0,.38,0,5.88,5.88,0,0,0,3-1.72,9.63,9.63,0,0,1-3.52,5.77,12.82,12.82,0,0,1-4.57,2.08,16,16,0,0,1-3,.48,6.26,6.26,0,0,1-.75,0,3.37,3.37,0,0,0-1,.08.19.19,0,0,0-.24.2.2.2,0,0,0,.26.2,5.09,5.09,0,0,0,1.68.39c.2,0,.41,0,.61,0l.2,0a12.06,12.06,0,0,1-2.32,3.61A13.52,13.52,0,0,1,106.47,113.64ZM159.12,165a28.29,28.29,0,0,0-1.22-6.58,17.27,17.27,0,0,0-3.38-6.32c-.06-.06-.12-.1-.17-.16a53.43,53.43,0,0,0-.38-5.79,32,32,0,0,0-3.83-12.21,25.09,25.09,0,0,0-5.21-7,17.33,17.33,0,0,0,2.25-8,11.26,11.26,0,0,0-.12-2,11.75,11.75,0,0,0,1.22-2.82,13.17,13.17,0,0,0-.38-7.09c.11-.52.21-1,.31-1.55a16.17,16.17,0,0,0-.27-7.82,12.26,12.26,0,0,0,1.4-3.39c.8-3.4-.08-7-1.14-10.26l-.27-.72c0-.24.09-.48.12-.73a35.3,35.3,0,0,0,.17-4.12,25.26,25.26,0,0,0-.48-5.49c-.24-.94-.5-1.86-.8-2.78a21.21,21.21,0,0,0-2.77-5.5,10.31,10.31,0,0,0,.16-4.39A22.83,22.83,0,0,0,143.26,56c-1.5-4-4.08-6.12-7.51-8.43a16.45,16.45,0,0,0-4.06-2.08A11.25,11.25,0,0,0,129,43.18,13.89,13.89,0,0,0,123.7,41a14.06,14.06,0,0,0-7.38.73,21.75,21.75,0,0,0-10.66-.46,19.21,19.21,0,0,0-9.75,5.64,12.87,12.87,0,0,0-3.09,1.52A26.6,26.6,0,0,0,87.3,53a25.59,25.59,0,0,0-4.89,7.85c-.28.16-.54.32-.8.5-.19-.87-.41-1.72-.67-2.57A32.34,32.34,0,0,0,78,51.64c-.12-.22-.25-.44-.38-.66a19.88,19.88,0,0,0-1-3.94,24.61,24.61,0,0,0-4.84-8.23,25.12,25.12,0,0,0-3.74-3.16,38.65,38.65,0,0,0-2.18-4.71,35.34,35.34,0,0,0-3.11-4.79,33.54,33.54,0,0,0-8-7,16.65,16.65,0,0,0-3-4.76,21.45,21.45,0,0,0-6.84-5A24.83,24.83,0,0,0,37,6.82c-.87-.09-1.75-.13-2.62-.14a15.18,15.18,0,0,0-2.49-1.15,20.92,20.92,0,0,0-8.1-.88A22.79,22.79,0,0,0,3,22.76a29.11,29.11,0,0,0-.58,6.32c0,.33,0,.66,0,1a14.4,14.4,0,0,0-1.31,2.71C-.73,37.63-.1,46.49,1.57,51.41A36.3,36.3,0,0,0,9.55,65C8.54,73.59,17,81.76,25,84.39c.08.42.15.85.24,1.27a38.32,38.32,0,0,0,2.38,7,22.62,22.62,0,0,0,2.07,3.81,43.07,43.07,0,0,0,10.58,11c.37.26.74.5,1.11.75-.67.33-1.33.68-2,1.06a36.07,36.07,0,0,0-11.59,10.67,30.47,30.47,0,0,0-4,7.52c-.48.39-1,.79-1.42,1.2A37.74,37.74,0,0,0,11.78,148c-.18,1.1-.29,2.2-.38,3.3-.44.81-.87,1.63-1.24,2.48a30.17,30.17,0,0,0-2.1,9.43,39.74,39.74,0,0,0,0,4.5,24.57,24.57,0,0,0,3.25,11.67A30.57,30.57,0,0,0,16,197.36c0,.33.05.65.1,1a25.7,25.7,0,0,0,2.64,8.41,19,19,0,0,0,3,4.44,25.61,25.61,0,0,0,5.61,4.55A23,23,0,0,0,29.17,220a32.21,32.21,0,0,0,7.41,9.94,34.86,34.86,0,0,0,9,5.35l.48.65c4.72,6.29,12.84,9.09,20.48,9.31A19.58,19.58,0,0,0,74.86,244a25.68,25.68,0,0,0,8.83,1.9l1.37,0c1.74,0,3.49-.11,5.23-.28a28.56,28.56,0,0,0,6.4-1.39,21.27,21.27,0,0,0,6.28-3.05l.13-.1a22.2,22.2,0,0,0,4-.75,23,23,0,0,0,9.74-6c.57-.57,1.14-1.15,1.68-1.76a23.36,23.36,0,0,0,5-1.74c5.42-2.58,9.33-5.69,11.94-10.48a22.5,22.5,0,0,0,2.26-1.11,31.93,31.93,0,0,0,3.42-2.47,24.35,24.35,0,0,0,7.83-9.89c.24-.56.45-1.14.64-1.72.17-.17.33-.34.49-.52a30.33,30.33,0,0,0,5.57-8.94,22.85,22.85,0,0,0,1.42-4.55,25.66,25.66,0,0,0,.4-3.92,51.87,51.87,0,0,0,0-6A29.51,29.51,0,0,0,157,177a29.73,29.73,0,0,0,1.72-5.37A29,29,0,0,0,159.12,165Zm-2.06,9c-.16.48-.33,1-.51,1.43a29.34,29.34,0,0,0-1.24-3.44c-.14-.29-.26-.59-.43-.87a.2.2,0,0,0-.1-.15c-.23-.13-.42.22-.21.34a28.22,28.22,0,0,1,1.75,7.36,38.85,38.85,0,0,1,.28,6.38,27.5,27.5,0,0,1-2.06,10.52,29.31,29.31,0,0,1-2.37,4.46c-.63,1-1.31,2-2,2.89a15.66,15.66,0,0,0,.34-2.46,11.76,11.76,0,0,0-.11-3,.22.22,0,1,0-.31.13,5.23,5.23,0,0,1,0,1.25,24,24,0,0,1-.45,3.16,22.47,22.47,0,0,1-1.53,4.54,2,2,0,0,1-.11.2.21.21,0,0,0,0,.06l.06-.05a25,25,0,0,1-2,3.56,27.56,27.56,0,0,1-6.59,6.65,28.46,28.46,0,0,1-3.39,2.25,26.52,26.52,0,0,0,1.3-3.29,28.79,28.79,0,0,0,.81-3.42c0-.24.36-1.28-.05-1.27a.2.2,0,0,0-.2.17c-.13.27-.22.56-.33.83-.39,1-.79,2.06-1.15,3.1a29.64,29.64,0,0,1-2.27,5.23,1.09,1.09,0,0,1-.08.15l-.33.66c-.1.21-.19.42-.3.63a.57.57,0,0,1-.36.28,17.8,17.8,0,0,1-3.94,4.19,31.83,31.83,0,0,1-8.22,4.47l-1.4.46a12.74,12.74,0,0,0,2.43-4.83.18.18,0,0,0-.1-.32.17.17,0,0,0-.16.26,24.79,24.79,0,0,1-2.71,4.09c-.61.78-1.27,1.53-1.94,2.27a.88.88,0,0,1-.22.1l.15,0a28,28,0,0,1-3.33,3.11,22.28,22.28,0,0,1-7.74,3.91c-.56.15-1.14.27-1.72.37a11.8,11.8,0,0,0,1.42-1.5c.14-.21.47-.6.37-.86,0-.1-.15-.08-.22,0s-.19.1-.16.2a21.71,21.71,0,0,1-6,4.15,36.21,36.21,0,0,1-7.74,2.42,37.16,37.16,0,0,1-7,.53,27.52,27.52,0,0,1-8.94-1.65l.2-.1c.17-.12.73-.46.56-.7-.07-.06-.21-.08-.26,0a19.42,19.42,0,0,1-2.45.9c-3.8,1-7.8.71-11.67.23h0l-.18,0H61.9A25.15,25.15,0,0,1,49,237.92c-.72-.7-1.48-1.41-2.14-2.18a33.17,33.17,0,0,0,8.6,1.95h0q.39,0,.78,0c.44,0,.88,0,1.31,0a.28.28,0,0,0,.41-.27.26.26,0,0,0-.33-.22l-.13.05a2.44,2.44,0,0,1-.47,0,34.43,34.43,0,0,1-4.61-.79,40.76,40.76,0,0,1-6.55-2,.34.34,0,0,0-.32-.14c-7.89-3.27-13.51-9-16.75-17.81l1.07.52a20.3,20.3,0,0,0,2.34.84,24,24,0,0,0,3.31.84.15.15,0,0,0,.09,0,.13.13,0,0,0,0-.25,26.63,26.63,0,0,0-2.71-1.12A30.17,30.17,0,0,1,27.75,215a23.11,23.11,0,0,1-6.56-5.86A23.72,23.72,0,0,1,17.11,199a23.35,23.35,0,0,0,3.05,3.38c.43.39.86.77,1.31,1.13a4.52,4.52,0,0,1,.7.6.23.23,0,0,0,.16.07.22.22,0,0,0,.1-.41,5.52,5.52,0,0,1-1.11-1c-.85-.9-1.67-1.84-2.44-2.81-.56-.73-1.1-1.48-1.6-2.25l-.09-.13c-.1-.13-.2-.26-.29-.4s-.35-.52-.51-.8a.64.64,0,0,1-.08-.14l-.29-.4-.19-.27a1.06,1.06,0,0,1-.27-.63s0-.09,0-.13a29.21,29.21,0,0,1-3.43-14.09c1.08,1.4,2.56,3.33,4.18,4a.65.65,0,0,0,.16,0,.15.15,0,0,0,.17-.12c0-.07-.07-.23-.17-.17a18.26,18.26,0,0,1-3.9-4.41c-.14-.21-.25-.44-.38-.66v-.05h0a.43.43,0,0,1-.11-.12,2.93,2.93,0,0,1-.23-.43l-.18-.34-.18-.35,0-.05v0a26,26,0,0,1-1.87-5.15,33.37,33.37,0,0,1,0-14.14,25.79,25.79,0,0,1,1.69-5.35c0,.78-.05,1.56,0,2.34a28,28,0,0,0,1.55,9.56.12.12,0,0,0,.11.13h0a.1.1,0,0,0,.07-.16.59.59,0,0,0,0-.14c0-.2-.05-.4-.07-.6-.2-1.26-.42-2.52-.55-3.8a48.6,48.6,0,0,1,.23-12.58,24.65,24.65,0,0,1,.93-3.86,30.78,30.78,0,0,1,2.63-6.11,34.25,34.25,0,0,1,6.47-8.74c.27-.25.54-.48.82-.71-.05.15-.1.3-.14.45a18.88,18.88,0,0,0-.91,7.07,12.28,12.28,0,0,0,.22,1.48,3.77,3.77,0,0,0,.35,1.14.16.16,0,0,0,.13.08.16.16,0,0,0,.14-.19c0-.46,0-.92,0-1.39,0-.88,0-1.68,0-2.59s.17-1.69.28-2.53a23.13,23.13,0,0,1,1.33-4.68c.13-.34.27-.68.41-1h0l0-.09.08-.15,0,0a29.84,29.84,0,0,1,2.18-4.2,35,35,0,0,1,10-10.65,36.3,36.3,0,0,1,4.51-2.73c.94.62,1.9,1.22,2.88,1.78a20.66,20.66,0,0,0,2.91,1.43,5.79,5.79,0,0,0,1.86.51h.06a.13.13,0,0,0,.13-.14.12.12,0,0,0-.18-.12A17.14,17.14,0,0,1,47.69,111c-1.2-.74-2.42-1.43-3.58-2.2l-.93-.61a1.76,1.76,0,0,1,.2-.09l-.08,0,0,0-.09-.06-.48-.31h0l0,0-.18.09a42.48,42.48,0,0,1-8.08-6.87A41.26,41.26,0,0,1,30,95a34.43,34.43,0,0,1-3.69-9.81c0-.17-.06-.33-.1-.49q.52.14,1.05.24c.6.16.82-.8.22-.94-.37-.08-.74-.18-1.1-.29L26,83.61a0,0,0,0,0,0,0h-.05a22.87,22.87,0,0,1-5-2.21C15.75,78,10.09,72.24,10.3,65.73a22.69,22.69,0,0,0,1.83,1.55,21.16,21.16,0,0,0,3.41,2.21,2.85,2.85,0,0,0,1,.36l.07,0a.14.14,0,0,0,0-.28,27.65,27.65,0,0,1-2.33-1.74A32.3,32.3,0,0,1,11,65.06c-.2-.19-.36-.39-.55-.58A10.63,10.63,0,0,1,10.73,63a6.3,6.3,0,0,1,.59-1.53.34.34,0,0,0-.08-.47c-.67-.28-.89,1-1.16,1.47a11.53,11.53,0,0,0-.33,1.25,32.35,32.35,0,0,1-4.63-6.83,34.69,34.69,0,0,1-3.38-8.8,38.08,38.08,0,0,1-.68-9.94,18.84,18.84,0,0,1,.53-3.73,12.87,12.87,0,0,1,.94-2.56c.05.7.11,1.4.22,2.1a29.69,29.69,0,0,0,2.41,7.57A38.68,38.68,0,0,0,7.5,46.26a.1.1,0,0,0,.11.11.1.1,0,0,0,.07,0,.11.11,0,0,0,0-.19,51.47,51.47,0,0,1-4.06-11,32,32,0,0,1-.46-5.78,35.76,35.76,0,0,1,.22-4.26A22.55,22.55,0,0,1,7.56,14.35,23.52,23.52,0,0,1,16.7,7.17,19.79,19.79,0,0,1,23,5.71,21.72,21.72,0,0,1,31.83,6.8a20.06,20.06,0,0,0-3,.5A16.09,16.09,0,0,0,26.68,8a2.68,2.68,0,0,0-.83.49.15.15,0,0,0-.09.25A.15.15,0,0,0,26,8.69a10.56,10.56,0,0,1,2.21-.64A23.51,23.51,0,0,1,39,8a24.41,24.41,0,0,1,6.35,2.6A23.81,23.81,0,0,1,49,13a18,18,0,0,1,4,5c-.87-.48-1.76-.95-2.67-1.36a7.83,7.83,0,0,0-1.89-.65.11.11,0,1,0,0,.22,35.46,35.46,0,0,1,11,7.8,36.86,36.86,0,0,1,5.43,7.41c.54,1,1,2,1.43,3-1-.64-2.14-1.22-3.23-1.76-.33-.17-4.06-1.76-3.82-.94a20.49,20.49,0,0,1,4.49,2,27.07,27.07,0,0,1,8.71,7.46,23.2,23.2,0,0,1,2.35,4.29,19.87,19.87,0,0,1,1,2.52,19.77,19.77,0,0,0-4.47-4.7c-.16-.09-.87-.55-.92-.19a.16.16,0,0,0,.15.16c.71.7,1.44,1.42,2.12,2.15.94,1.07,1.82,2.18,2.66,3.33a35.9,35.9,0,0,1,2.29,3.76h0l0,0,.18.45c0-.05,0-.09,0-.13.46.89.9,1.8,1.28,2.73a31.79,31.79,0,0,1,1.74,6.28v0c-.36.28-.71.57-1,.84a14.55,14.55,0,0,0-3.4,5.16,27.27,27.27,0,0,0-2,9.81,20.45,20.45,0,0,0-3.53,10.32c-.06.67-.1,1.35-.1,2a10.68,10.68,0,0,0-.91,1.48,13.18,13.18,0,0,0-.52,11,14.42,14.42,0,0,0,3.28,5.65c.27.25.55.5.84.73a10,10,0,0,0,2.83,1.6A17.4,17.4,0,0,0,77.52,112a18.23,18.23,0,0,0,1.54,1.39,61.54,61.54,0,0,0-58.73,58.09c-.06,1.12-.09,2.25-.09,3.38a61.54,61.54,0,1,0,84-57.31q-2.39-.93-4.88-1.67l-.32-.1.09,0,.63-.38.54-.37a10.6,10.6,0,0,0,2,.37c.33,0,.67,0,1,0a14.22,14.22,0,0,0,5.07-.93,13.59,13.59,0,0,0,2.48-1.22,13.21,13.21,0,0,0,5-6.28c0-.08.06-.16.1-.25a20.6,20.6,0,0,0,3.56-.89,9.53,9.53,0,0,0,6-6.12,12.55,12.55,0,0,0,.56-3.16,14.16,14.16,0,0,0,2.92-6.2,17.83,17.83,0,0,0,.37-5.41c-.07-.61-.18-1.23-.31-1.83,0-.15-.06-.3-.1-.44s-.08-.32-.13-.48a.35.35,0,0,0-.44-.21l0,0a.34.34,0,0,0-.18.38c.1.42.19.84.25,1.27a15.31,15.31,0,0,1,.17,2,22,22,0,0,1-.64,5.59,12.63,12.63,0,0,1-3,5.66,6.91,6.91,0,0,1-3.13,2.09.15.15,0,0,0-.22.16.16.16,0,0,0,.22.13,1.6,1.6,0,0,0,.38,0,5.88,5.88,0,0,0,3-1.72,9.63,9.63,0,0,1-3.52,5.77,12.82,12.82,0,0,1-4.57,2.08,16,16,0,0,1-3,.48,6.26,6.26,0,0,1-.75,0,3.37,3.37,0,0,0-1,.08.19.19,0,0,0-.24.2.2.2,0,0,0,.26.2,5.09,5.09,0,0,0,1.68.39c.2,0,.41,0,.61,0l.2,0a12.06,12.06,0,0,1-2.32,3.61,13.52,13.52,0,0,1-5.83,3.19c-.32.09-.64.16-1,.23a12.46,12.46,0,0,1-5.23,0,8,8,0,0,1-2.57-.89.23.23,0,0,0-.35.31,4.69,4.69,0,0,0,1.75,1.31c-.3.16-.61.32-.92.46a16,16,0,0,1-3.86,1.25,21,21,0,0,1-9.61-.82,16.82,16.82,0,0,1-6.23-4,15.87,15.87,0,0,1-2.15-2.76,17.81,17.81,0,0,1-1.1-2.07,8.46,8.46,0,0,1-.74-2.43.51.51,0,0,0-1,.11,11.55,11.55,0,0,0,1.44,4.23,12.39,12.39,0,0,1-3-2.91,15.55,15.55,0,0,1-2.49-10,10.66,10.66,0,0,1,1.32-3.82l0,0A12.56,12.56,0,0,0,71.55,95c.2.5.54,1.46,1.06,1.68h0a.16.16,0,0,0,.15-.07c.08-.15-.08-.25-.14-.37a4.56,4.56,0,0,1-.39-1,22.8,22.8,0,0,1-.36-6.75,22.21,22.21,0,0,1,.66-4.25,19,19,0,0,1,1.16-3.1c.19-.38.4-.76.62-1.13,0,.49,0,1,0,1.48s0,.7,0,1a.5.5,0,0,0,.19.38.48.48,0,0,0,.29.11.49.49,0,0,0,.49-.55c0-.32-.05-.63-.07-.95a41.71,41.71,0,0,1,.73-8.85,24.12,24.12,0,0,1,1.34-4.25,16.12,16.12,0,0,1,2.14-3.82,14.75,14.75,0,0,1,2.35-2.39c-.11.29-.21.58-.31.87a14.78,14.78,0,0,0-.83,5.34.2.2,0,0,0,0,.21c.2.21.48-.12.26-.28a26.11,26.11,0,0,1,1.07-3.67,32.63,32.63,0,0,1,2.44-5.6,27.59,27.59,0,0,1,7.1-8,21.58,21.58,0,0,1,4.1-2.58,11,11,0,0,1,2.6-.66,10,10,0,0,1,1.1-.07.67.67,0,0,0,.46-.15.63.63,0,0,0-.37-1.09,15.8,15.8,0,0,0-2.06.06l.85-.73A18.1,18.1,0,0,1,103,43a21,21,0,0,1,15.38.43,25.51,25.51,0,0,1,9.75,6.77.12.12,0,0,0,.11.09.12.12,0,0,0,.1-.19c-.48-1.74-3.61-4.1-5.16-5.08a23.68,23.68,0,0,0-5.24-2.71l.55-.12a20.34,20.34,0,0,1,3.4-.17,11.37,11.37,0,0,1,3.82.78,14.64,14.64,0,0,1,3.23,2c-.44-.07-.88-.13-1.35-.18a.37.37,0,0,0-.38.33c0,.45.49.38.79.44a21.43,21.43,0,0,1,2.51.5.63.63,0,0,1,.38,0l.71.29s.06,0,.08,0a.33.33,0,0,1,.13.07l.35.14a23,23,0,0,1,4.8,3A22.22,22.22,0,0,1,139,51.26a15.1,15.1,0,0,1,3.76,6.63,20.86,20.86,0,0,1,.73,5,6.67,6.67,0,0,1-.07.89,13.6,13.6,0,0,0-2.79-2.56,12.8,12.8,0,0,0-1.19-.7,2.58,2.58,0,0,0-1.2-.39.2.2,0,0,0-.23.3.2.2,0,0,0,.3,0,5.22,5.22,0,0,1,1.17.67,15.68,15.68,0,0,1,4.28,4.68,18.8,18.8,0,0,1,2.15,4.72A25.13,25.13,0,0,1,147,75.55a26.69,26.69,0,0,1,0,5.58c-.25-.53-.52-1-.82-1.55a.42.42,0,0,0-.59-.11.41.41,0,0,0-.14.54,8.11,8.11,0,0,1,.45.88,38.74,38.74,0,0,1,2,6.12c1.29,5.7.44,9.67-3.55,14a.27.27,0,0,0-.15,0,.26.26,0,0,0-.13.32.26.26,0,0,0,.45.06,5,5,0,0,0,2-1.7c.29-.36.56-.74.82-1.13a18.35,18.35,0,0,1,.09,4.19c-.05.67-.14,1.34-.24,2a.37.37,0,0,0-.44-.19.35.35,0,0,0-.22.45q.14.39.24.78a28.14,28.14,0,0,1,.66,2.89,12.39,12.39,0,0,1-.17,5.65,14.88,14.88,0,0,1-2.15,4.17,15.5,15.5,0,0,1-1.11,1.32c-.33.36-.71.66-1,1a.15.15,0,0,0-.08.25.15.15,0,0,0,.25,0,10.21,10.21,0,0,0,3.16-3,22.59,22.59,0,0,1-2.06,7.77c-.05.1-.11.19-.17.29-.5-.43-1-.85-1.59-1.26a15.06,15.06,0,0,0-2.45-1.62.1.1,0,0,0-.09.07c0,.05,0,.12.08.12,1.41,1.49,3.06,2.74,4.44,4.26a33.63,33.63,0,0,1,6.43,10.72,42.41,42.41,0,0,1,2.07,10.7c0,.51.06,1,.08,1.53a4.92,4.92,0,0,0-1.37-.94c-.09,0-.24-.14-.32,0s0,.18.1.14l.12.06.87.92a18.68,18.68,0,0,1,2,2.33,20.3,20.3,0,0,1,2.19,4.52A24.7,24.7,0,0,1,157.06,174Zm-14.75,2.46v.05a60.55,60.55,0,0,1-120.8,4.25h0c-.19-1.92-.28-3.88-.28-5.85a60.56,60.56,0,0,1,59-60.53v-.06a19.89,19.89,0,0,0,9.15,3.33,18.58,18.58,0,0,0,2,.11,16.15,16.15,0,0,0,6.4-1.28,60.66,60.66,0,0,1,44.59,58.43C142.33,175.41,142.32,175.93,142.31,176.45ZM129.27,85c-.07-.61-.18-1.23-.31-1.83,0-.15-.06-.3-.1-.44s-.08-.32-.13-.48a.35.35,0,0,0-.44-.21l0,0a.34.34,0,0,0-.18.38c.1.42.19.84.25,1.27a15.31,15.31,0,0,1,.17,2,22,22,0,0,1-.64,5.59,12.63,12.63,0,0,1-3,5.66,6.91,6.91,0,0,1-3.13,2.09.15.15,0,0,0-.22.16.16.16,0,0,0,.22.13,1.6,1.6,0,0,0,.38,0,5.88,5.88,0,0,0,3-1.72,9.63,9.63,0,0,1-3.52,5.77,12.82,12.82,0,0,1-4.57,2.08,16,16,0,0,1-3,.48,6.26,6.26,0,0,1-.75,0,3.37,3.37,0,0,0-1,.08.19.19,0,0,0-.24.2.2.2,0,0,0,.26.2,5.09,5.09,0,0,0,1.68.39c.2,0,.41,0,.61,0l.2,0a12.06,12.06,0,0,1-2.32,3.61,13.52,13.52,0,0,1-5.83,3.19c.63.27,1.25.56,1.86.85a13.59,13.59,0,0,0,2.48-1.22,13.21,13.21,0,0,0,5-6.28c0-.08.06-.16.1-.25a20.6,20.6,0,0,0,3.56-.89,9.53,9.53,0,0,0,6-6.12,12.55,12.55,0,0,0,.56-3.16,14.16,14.16,0,0,0,2.92-6.2A17.83,17.83,0,0,0,129.27,85Zm13.53,82c0,.56,0,1.12,0,1.69a59.52,59.52,0,0,1-.52,7.83v.05a60.55,60.55,0,0,1-120.8,4.25h0a58.38,58.38,0,0,1-1.18-9.23c-.06,1.12-.09,2.25-.09,3.38a61.54,61.54,0,1,0,122.56-8Z"/>
        <polygon points="156.67 157.67 156.67 157.67 156.67 157.67 156.67 157.67"/>
        <path d="M55.45,237.7h0Z"/>
        <path d="M116.49,233h0l.21,0a.74.74,0,0,1-.21,0Z"/>
        <path d="M116.75,233h0Z"/>
        <path class="i" d="M25.31,176.43A56.48,56.48,0,1,0,81.79,120,56.47,56.47,0,0,0,25.31,176.43Zm108.34-19.71A55.48,55.48,0,1,1,26.87,184.35a55.49,55.49,0,0,1,106.78-27.63Z"/>
        <path class="d" d="M79.06,113.42a61.54,61.54,0,0,0-58.73,58.09c0-1-.07-1.92-.07-2.89,0-30.53,23.18-55.76,53.2-59.64a10,10,0,0,0,2.83,1.6A17.4,17.4,0,0,0,77.52,112,18.23,18.23,0,0,0,79.06,113.42Z"/>
        <path class="d" d="M142.8,166.93a61.7,61.7,0,0,0-38.57-49.35q-2.39-.93-4.88-1.67l-.32-.1.09,0,.63-.38.54-.37a10.6,10.6,0,0,0,2,.37c.33,0,.67,0,1,0a14.22,14.22,0,0,0,5.07-.93A60.11,60.11,0,0,1,142.8,166.93Z"/>
      </g>
    </g>
    <g>
      <path class="i" d="M71.78,172.67a1.44,1.44,0,0,0,2,0,1.43,1.43,0,0,0,0-2l-4.86-4.86,4.86-4.86a1.42,1.42,0,0,0-2-2l-4.86,4.86-4.86-4.86a1.4,1.4,0,0,0-2,0,1.42,1.42,0,0,0,0,2l4.86,4.86-4.86,4.86a1.43,1.43,0,0,0,0,2,1.4,1.4,0,0,0,1,.41,1.38,1.38,0,0,0,1-.41l4.86-4.86Z"/>
      <path class="i" d="M102,165.8l4.86-4.86a1.41,1.41,0,0,0-2-2L100,163.8l-4.86-4.86a1.42,1.42,0,0,0-2,2L98,165.8l-4.86,4.86a1.43,1.43,0,0,0,0,2,1.44,1.44,0,0,0,2,0l4.86-4.86,4.86,4.86a1.4,1.4,0,0,0,1,.41,1.38,1.38,0,0,0,1-.41,1.41,1.41,0,0,0,0-2Z"/>
      <path class="i" d="M103.46,200.44H62.94a.71.71,0,1,0,0,1.42h40.52a.71.71,0,1,0,0-1.42Z"/>
    </g>
  </g>
</svg>
