<svg xmlns="http://www.w3.org/2000/svg" viewBox="0 0 15.62 23.2"><defs><style>.a{fill:#f8f8f8;}</style></defs><path class="a" d="M19.7,15.9c0-.2-.1-.4-.1-.6l-.3-.6h0v-.6a2.84,2.84,0,0,0-.4-1.2,1.79,1.79,0,0,0-.5-.7,1.88,1.88,0,0,0,.2-.8v-.2a.37.37,0,0,0,.1-.3c.1-.2,0-.5,0-.7v-1a.37.37,0,0,0,.1-.3,1.73,1.73,0,0,0-.1-1V6.8a.37.37,0,0,0-.1-.3,2.19,2.19,0,0,0-.3-.5V5.6c0-.1-.1-.3-.1-.4a1.39,1.39,0,0,0-.7-.8.76.76,0,0,0-.4-.2c-.1-.1-.2-.1-.3-.2s-.3-.2-.5-.2a1.7,1.7,0,0,0-.7.1,1.7,1.7,0,0,0-1,0,1.93,1.93,0,0,0-.9.5c-.1,0-.2.1-.3.1a2.36,2.36,0,0,0-1,1.2h-.1c0-.1,0-.2-.1-.2-.1-.2-.2-.5-.3-.7V4.7a.6.6,0,0,0-.1-.4,2.18,2.18,0,0,0-.5-.8,1.38,1.38,0,0,0-.4-.3c-.1-.2-.1-.3-.2-.5s-.2-.3-.3-.5a2.7,2.7,0,0,0-.8-.7q-.15,0-.3-.3A4.23,4.23,0,0,0,8.6.7,1.85,1.85,0,0,0,7.9.5H7.6A.35.35,0,0,1,7.4.4,2.49,2.49,0,0,0,6.6.3,2.13,2.13,0,0,0,5.1,1a1.39,1.39,0,0,0-.5,1c0,.2-.1.4-.1.6v.1a.37.37,0,0,0-.1.3,3.66,3.66,0,0,0,0,1.8,2.87,2.87,0,0,0,.8,1.3A1.93,1.93,0,0,0,6.7,8v.1a4.88,4.88,0,0,0,.3.7.52.52,0,0,0,.2.4,5.24,5.24,0,0,0,1,1.1.1.1,0,0,1,.1.1c-.1,0-.1.1-.2.1a5.24,5.24,0,0,0-1.1,1,2.51,2.51,0,0,0-.4.7l-.1.1a3.52,3.52,0,0,0-1,1.9v.3a.35.35,0,0,1-.1.2,2.92,2.92,0,0,0-.2.9V16a2,2,0,0,0,.3,1.1A2.62,2.62,0,0,0,6,18.8v.1a1.14,1.14,0,0,0,.3.8,1.38,1.38,0,0,0,.3.4,1.76,1.76,0,0,0,.5.4.76.76,0,0,0,.2.4,3.59,3.59,0,0,0,.7,1,4.05,4.05,0,0,0,.9.5v.1a2.52,2.52,0,0,0,2,.9,2,2,0,0,0,.8-.1,2.92,2.92,0,0,0,.9.2h.6c.2,0,.4-.1.6-.1l.6-.3h0a.6.6,0,0,0,.4-.1c.1,0,.2-.1.4-.1s.4-.3.6-.4l.2-.2c.2,0,.3-.1.5-.2a4,4,0,0,0,1.2-1c.1,0,.1-.1.2-.1s.2-.2.3-.2a3.92,3.92,0,0,0,.8-1c0-.1,0-.1.1-.2v-.1a4.05,4.05,0,0,0,.5-.9.6.6,0,0,0,.1-.4V16.8c.1-.2.1-.3.2-.5C19.7,16.3,19.7,16.1,19.7,15.9Z" transform="translate(-4.28 -0.3)"/></svg>