<svg xmlns="http://www.w3.org/2000/svg" viewBox="0 0 174 247.41">
  <defs>
    <style>
      .a {
        opacity: 0.89;
      }

      .b {
        fill: #f1a3c0;
      }

      .c {
        fill: #fb1e1d;
      }

      .d {
        fill: #b91313;
      }

      .e {
        fill: #333;
      }
    </style>
  </defs>
  <g>
    <g class="a">
      <path class="b" d="M173.11,163.67a28.51,28.51,0,0,0-1.28-6.72,17.59,17.59,0,0,0-3.54-6.45l-.18-.16a53.16,53.16,0,0,0-.4-5.91,32.07,32.07,0,0,0-4-12.46,25.61,25.61,0,0,0-5.45-7.17,17.37,17.37,0,0,0,2.35-8.16,11.76,11.76,0,0,0-.12-2,12.08,12.08,0,0,0,1.27-2.87,13.05,13.05,0,0,0-.39-7.24c.11-.53.22-1.06.32-1.58a16,16,0,0,0-.28-8,12.57,12.57,0,0,0,1.47-3.46c.83-3.47-.09-7.14-1.2-10.47-.09-.25-.19-.49-.28-.74s.09-.49.12-.74a34.63,34.63,0,0,0,.18-4.2,25.14,25.14,0,0,0-.5-5.61c-.25-1-.52-1.9-.84-2.83a21.42,21.42,0,0,0-2.9-5.62,10.26,10.26,0,0,0,.17-4.48,23.09,23.09,0,0,0-1.12-4.4c-1.57-4.06-4.28-6.24-7.87-8.6a17.4,17.4,0,0,0-4.25-2.12,11.91,11.91,0,0,0-2.87-2.33,14.7,14.7,0,0,0-5.5-2.2,15.05,15.05,0,0,0-7.73.74,23.46,23.46,0,0,0-11.17-.47,20.23,20.23,0,0,0-10.21,5.76,13.73,13.73,0,0,0-3.23,1.55,28.06,28.06,0,0,0-5.79,4.66,26.17,26.17,0,0,0-5.12,8c-.29.16-.56.32-.84.51-.2-.89-.43-1.76-.7-2.63A32.25,32.25,0,0,0,88.16,48c-.12-.23-.26-.45-.39-.68a20.24,20.24,0,0,0-1-4,25,25,0,0,0-5.07-8.4,25.94,25.94,0,0,0-3.92-3.22,39.13,39.13,0,0,0-2.28-4.81A35.54,35.54,0,0,0,72.23,22a34.75,34.75,0,0,0-8.37-7.17A16.84,16.84,0,0,0,60.68,10,22.62,22.62,0,0,0,53.51,4.9a26.36,26.36,0,0,0-8.27-2.62c-.91-.09-1.83-.13-2.74-.15A17.47,17.47,0,0,0,39.89,1,22.52,22.52,0,0,0,31.4.06,24,24,0,0,0,15.33,7.6,22.89,22.89,0,0,0,9.6,18.54,29.14,29.14,0,0,0,9,25c0,.34,0,.68,0,1a14,14,0,0,0-1.37,2.77c-2,4.95-1.3,14,.45,19a36.81,36.81,0,0,0,8.36,13.83c-1.06,8.81,7.75,17.14,16.2,19.83.08.43.16.86.25,1.29a39.43,39.43,0,0,0,2.49,7.13,23,23,0,0,0,2.17,3.88,44.46,44.46,0,0,0,11.08,11.19l1.17.76c-.7.34-1.4.7-2.08,1.09a37.51,37.51,0,0,0-12.14,10.88,30.94,30.94,0,0,0-4.17,7.68c-.5.4-1,.8-1.48,1.22-5.33,4.91-9.91,12.77-11.16,19.83-.19,1.12-.3,2.25-.4,3.37-.46.83-.91,1.66-1.29,2.53a30.07,30.07,0,0,0-2.2,9.62,37.18,37.18,0,0,0,0,4.6,24.58,24.58,0,0,0,3.4,11.9,30.63,30.63,0,0,0,4.91,18.31c0,.34.06.67.11,1a25.83,25.83,0,0,0,2.76,8.58,19.33,19.33,0,0,0,3.18,4.54,27.23,27.23,0,0,0,5.87,4.64A23.45,23.45,0,0,0,37,219.83,33.05,33.05,0,0,0,44.76,230a36.78,36.78,0,0,0,9.46,5.46c.16.22.33.45.5.66,4.94,6.42,13.45,9.28,21.45,9.5a21.06,21.06,0,0,0,8.68-1.24,27.85,27.85,0,0,0,9.25,1.94l1.44,0c1.82,0,3.65-.11,5.48-.29a30.07,30.07,0,0,0,6.7-1.42,22.46,22.46,0,0,0,6.58-3.11l.13-.1a23.23,23.23,0,0,0,4.14-.77,26.19,26.19,0,0,0,3.77-1.5,26.58,26.58,0,0,0,6.43-4.65c.6-.58,1.2-1.17,1.76-1.8a24.92,24.92,0,0,0,5.2-1.77c5.67-2.63,9.77-5.81,12.5-10.7a21.4,21.4,0,0,0,2.37-1.13,32,32,0,0,0,3.58-2.52,24.88,24.88,0,0,0,8.2-10.09c.25-.57.47-1.17.67-1.76.18-.17.35-.34.52-.53a30.71,30.71,0,0,0,5.83-9.12,23.23,23.23,0,0,0,1.49-4.64,26.86,26.86,0,0,0,.42-4,54,54,0,0,0,0-6.1,29.39,29.39,0,0,0-.51-4.38,30,30,0,0,0,1.8-5.48A29,29,0,0,0,173.11,163.67ZM82.32,235.44A57.71,57.71,0,1,1,140,177.73,57.71,57.71,0,0,1,82.32,235.44Z"/>
      <polygon class="b" points="174 202.05 174 202.05 174 202.06 174 202.05"/>
    </g>
    <g>
      <polygon class="c" points="25.39 127.69 25.4 127.68 25.4 127.69 25.39 127.69"/>
      <path class="c" d="M146.73,137c-.38-1.57-.81-3.13-1.29-4.66-.14-.45-.29-.9-.44-1.35-.22-.65-.45-1.3-.68-1.94-1.34-1.44-2.92-2.65-4.27-4.08-.05,0-.09-.07-.08-.12a.1.1,0,0,1,.09-.07,15.06,15.06,0,0,1,2.45,1.62c.2.15.4.29.59.45s.36.28.53.42h0l.46.37c0-.1.11-.18.16-.28.15-.28.28-.57.41-.86s.2-.5.29-.75.14-.39.2-.58c.15-.44.28-.89.4-1.34.06-.21.11-.41.16-.61l.15-.61.15-.75a16,16,0,0,0,.31-2.28,0,0,0,0,1,0,0,12.78,12.78,0,0,1-1.08,1.33,8.68,8.68,0,0,1-2.08,1.68.15.15,0,0,1-.25.05.15.15,0,0,1,.08-.25c.3-.37.68-.67,1-1a15.5,15.5,0,0,0,1.11-1.32,14.88,14.88,0,0,0,2.15-4.17,12.39,12.39,0,0,0,.17-5.65,28.14,28.14,0,0,0-.66-2.89q-.1-.39-.24-.78a.35.35,0,0,1,.22-.45.3.3,0,0,1,.13,0l.09,0h0a.38.38,0,0,1,.13.09.47.47,0,0,1,.06.09s0,0,0,0c0-.34.09-.67.13-1s.07-.67.1-1a17.88,17.88,0,0,0-.08-4.2,0,0,0,0,1,0,0c-.26.39-.53.77-.82,1.13a5,5,0,0,1-2,1.7.26.26,0,0,1-.45-.06.26.26,0,0,1,.13-.32.27.27,0,0,1,.15,0c4-4.36,4.84-8.33,3.55-14a38.74,38.74,0,0,0-2-6.12,8.11,8.11,0,0,0-.45-.88.41.41,0,0,1,.14-.54.42.42,0,0,1,.59.11c.3.5.57,1,.82,1.55A26.69,26.69,0,0,0,147,77,25.13,25.13,0,0,0,145.93,72c-.06-.21-.13-.41-.2-.62-.14-.41-.29-.82-.45-1.22a17.91,17.91,0,0,0-1.5-2.88,15.68,15.68,0,0,0-4.28-4.68,5.22,5.22,0,0,0-1.17-.67.2.2,0,0,1-.3,0,.2.2,0,0,1,.23-.3,2.58,2.58,0,0,1,1.2.39,12.8,12.8,0,0,1,1.19.7c.27.18.52.37.77.57a15.62,15.62,0,0,1,2,2h0a6.36,6.36,0,0,0,.06-.87,20.86,20.86,0,0,0-.73-5A15.1,15.1,0,0,0,139,52.72,22.22,22.22,0,0,0,137,50.91a23,23,0,0,0-4.8-3l-.35-.14a.33.33,0,0,0-.13-.07l0,0a.05.05,0,0,0,0,0l-.71-.28a.63.63,0,0,0-.38,0,21.43,21.43,0,0,0-2.51-.5c-.3-.06-.81,0-.79-.44a.37.37,0,0,1,.38-.33l.69.08c.22,0,.43.05.64.09h0a12.24,12.24,0,0,0-1.56-1.11,15.11,15.11,0,0,0-1.68-.91,11.37,11.37,0,0,0-3.82-.78,20.34,20.34,0,0,0-3.4.17l-.51.11a19.21,19.21,0,0,1,2.5,1.11l.81.44c.3.17.59.34.88.53s.68.42,1,.64c1.55,1,4.68,3.34,5.16,5.08a.12.12,0,0,1-.1.19.12.12,0,0,1-.11-.09,25.51,25.51,0,0,0-9.75-6.77A21,21,0,0,0,103,44.42a18.1,18.1,0,0,0-4.67,2.91l-.85.73A15.8,15.8,0,0,1,99.54,48a.63.63,0,0,1,.37,1.09.67.67,0,0,1-.46.15,10,10,0,0,0-1.1.07,11,11,0,0,0-2.6.66,21.58,21.58,0,0,0-4.1,2.58,27.59,27.59,0,0,0-7.1,8,32.63,32.63,0,0,0-2.44,5.6A26.11,26.11,0,0,0,81,69.83c.22.16-.06.49-.26.28a.2.2,0,0,1,0-.21,14.78,14.78,0,0,1,.83-5.34l.3-.86a14.63,14.63,0,0,0-2.34,2.38A16.12,16.12,0,0,0,77.4,69.9a24.12,24.12,0,0,0-1.34,4.25A41.71,41.71,0,0,0,75.33,83c0,.32,0,.63.07,1a.49.49,0,0,1-.49.55.48.48,0,0,1-.29-.11.5.5,0,0,1-.19-.38c0-.35,0-.7,0-1.05s0-1,0-1.46v0L74,82l-.3.57a19,19,0,0,0-1.16,3.1A22.21,22.21,0,0,0,71.92,90a22.8,22.8,0,0,0,.36,6.75,4.56,4.56,0,0,0,.39,1c.06.12.22.22.14.37a.16.16,0,0,1-.15.07h0c-.52-.22-.86-1.18-1.06-1.68a12.56,12.56,0,0,1-.72-3.31l0,0a10.66,10.66,0,0,0-1.32,3.82,15.55,15.55,0,0,0,2.49,10,10.72,10.72,0,0,0,1,1.22l.35.36A11,11,0,0,0,74.94,110a0,0,0,0,1,0,0,0,0,0,0,0,0,0c-.09-.17-.18-.33-.26-.5a9.33,9.33,0,0,1-.44-1c0-.06,0-.12-.08-.19s-.1-.26-.14-.4a10.13,10.13,0,0,1-.51-2.16.51.51,0,0,1,1-.11,6.45,6.45,0,0,0,.28,1.23c.06.2.13.4.2.59,0,0,0,0,0,0l.24.54c0,.1.09.2.14.3.12.27.25.53.39.79s.38.69.58,1,.29.46.45.68a.38.38,0,0,0,.08.11c.13.2.27.39.42.58l.08.11a5.71,5.71,0,0,0,.39.47c.23.28.48.55.73.81a16.82,16.82,0,0,0,6.23,4,21,21,0,0,0,9.61.82c.33-.06.66-.14,1-.22s.66-.18,1-.28l1-.34c.31-.12.62-.25.93-.4h0c.31-.14.61-.3.91-.46h0a4.69,4.69,0,0,1-1.75-1.31.23.23,0,0,1,.35-.31,8,8,0,0,0,2.57.89,12.46,12.46,0,0,0,5.23,0c.32-.07.64-.14,1-.23a5.76,5.76,0,0,0,.59-.18l.43-.14.6-.22.4-.17a6.11,6.11,0,0,0,.58-.27l.16-.07.58-.31a3.07,3.07,0,0,0,.39-.23h0l.59-.38c.22-.15.43-.31.64-.48a1.94,1.94,0,0,0,.29-.23c.19-.16.38-.32.56-.5s.49-.53.71-.81a10.77,10.77,0,0,0,.61-.89c.1-.15.19-.31.28-.46.18-.31.35-.63.5-1h0c.08-.16.16-.32.23-.48h-.21l-.61,0-.43,0a2.84,2.84,0,0,1-.49-.1,2.42,2.42,0,0,1-.36-.1,3.25,3.25,0,0,1-.4-.15.2.2,0,0,1-.26-.2.19.19,0,0,1,.24-.2,3.37,3.37,0,0,1,1-.08,6.26,6.26,0,0,0,.75,0,16,16,0,0,0,3-.48,12.82,12.82,0,0,0,4.57-2.08q.35-.27.66-.57a6,6,0,0,0,.61-.62,8.93,8.93,0,0,0,1-1.38c.12-.2.23-.41.34-.61l.17-.36a4.07,4.07,0,0,0,.18-.44.84.84,0,0,0,.08-.2c.1-.25.18-.5.26-.75s.11-.41.15-.61a2.1,2.1,0,0,0,.06-.24h0l-.32.3c-.17.15-.35.29-.53.42l-.3.22-.32.2a2,2,0,0,1-.32.18l-.34.16a4.63,4.63,0,0,1-.83.23.83.83,0,0,1-.22,0h-.16a.16.16,0,0,1-.22-.13.15.15,0,0,1,.22-.16,6.91,6.91,0,0,0,3.13-2.09,12.63,12.63,0,0,0,3-5.66,22,22,0,0,0,.64-5.59,15.31,15.31,0,0,0-.17-2c-.06-.43-.15-.85-.25-1.27a.22.22,0,0,1,0-.08.36.36,0,0,1,0-.1.2.2,0,0,1,0-.08.1.1,0,0,1,0-.06.16.16,0,0,1,.08-.06l0,0a.35.35,0,0,1,.44.21c.05.16.09.32.13.48h0l.09.43c.13.6.24,1.22.31,1.83a17.83,17.83,0,0,1-.37,5.41A14.16,14.16,0,0,1,126,98a12.24,12.24,0,0,1-.18,1.6,10.44,10.44,0,0,1-.38,1.56,9.53,9.53,0,0,1-6,6.12l-.87.28-.66.19c-.45.12-.9.23-1.35.31-.23,0-.45.09-.68.12l-.1.24a13.21,13.21,0,0,1-5,6.28c-.2.13-.41.25-.62.36a5.12,5.12,0,0,1-.57.3l-.06,0a6.28,6.28,0,0,1-.59.27l-.64.26a2.12,2.12,0,0,1-.4.14c-.25.09-.49.17-.74.24s-.64.17-1,.24a13.7,13.7,0,0,1-2.11.28c-.28,0-.57,0-.85,0s-.67,0-1,0a10.6,10.6,0,0,1-2-.37l-.54.37-.63.38-.08,0h0a11,11,0,0,1-1.28.65h0a14.23,14.23,0,0,1-1.54.57l-.61.17c-.31.09-.63.16-1,.22a8.74,8.74,0,0,1-.87.14,4.81,4.81,0,0,1-.65.08,1.07,1.07,0,0,1-.25,0l-.66.05-.87,0a18.58,18.58,0,0,1-2-.11c-.4,0-.8-.1-1.2-.17l-.12,0c-.33,0-.66-.11-1-.19l-.2,0c-.37-.08-.74-.18-1.1-.29l-.13,0c-.37-.1-.73-.22-1.09-.35s-.76-.28-1.13-.45a17.73,17.73,0,0,1-2.17-1.11c-.35-.2-.7-.42-1-.65h0a13.62,13.62,0,0,1-1.16-.88h0a20,20,0,0,1-1.53-1.39c-.22-.22-.42-.46-.63-.7l-.45-.55-.16-.2a6.81,6.81,0,0,1-.74-.31,7.14,7.14,0,0,1-.73-.37h0a8.35,8.35,0,0,1-1.17-.8.91.91,0,0,1-.16-.11c-.29-.23-.57-.48-.84-.73a10.62,10.62,0,0,1-1.54-1.93c-.22-.35-.42-.7-.62-1.07s-.37-.74-.53-1.11-.41-1-.59-1.54a13.18,13.18,0,0,1,.52-11,10.68,10.68,0,0,1,.91-1.48c0-.68,0-1.36.1-2a24,24,0,0,1,.72-4.24,19.31,19.31,0,0,1,2.34-5.38c.15-.23.3-.47.46-.7a29.81,29.81,0,0,1,.27-3.13c.07-.63.17-1.25.29-1.87a24.51,24.51,0,0,1,1-3.64c.14-.39.29-.78.46-1.17a14.55,14.55,0,0,1,3.4-5.16l.48-.42.26-.21a2.88,2.88,0,0,1,.27-.22v0a31.79,31.79,0,0,0-1.74-6.28c-.29-.7-.6-1.38-.94-2.06q-.15-.35-.33-.69v.15L77.62,54l0,0h0s0,0,0,0h0a36.78,36.78,0,0,0-2.27-3.71c-.84-1.15-1.72-2.26-2.66-3.33-.68-.73-1.41-1.45-2.12-2.15a.16.16,0,0,1-.15-.16c.05-.36.76.1.92.19a16.51,16.51,0,0,1,1.86,1.58q.72.72,1.38,1.5c.43.51.83,1,1.22,1.59l0,0c-.13-.44-.29-.87-.45-1.3h0c-.15-.42-.33-.83-.51-1.22a23.2,23.2,0,0,0-2.35-4.29,27.07,27.07,0,0,0-8.71-7.46,20.49,20.49,0,0,0-4.49-2c-.24-.82,3.49.77,3.82.94,1.09.54,2.18,1.12,3.23,1.76-.33-.76-.67-1.52-1-2.27l-.39-.74a36.86,36.86,0,0,0-5.43-7.41,35.46,35.46,0,0,0-11-7.8.11.11,0,1,1,0-.22,7.83,7.83,0,0,1,1.89.65l.81.38c.41.2.8.4,1.2.62.22.1.43.22.65.34a18.22,18.22,0,0,0-4-5,23.81,23.81,0,0,0-3.67-2.39A24.41,24.41,0,0,0,39,9.5a23.51,23.51,0,0,0-10.78,0,10.56,10.56,0,0,0-2.21.64.15.15,0,0,1-.25.07.15.15,0,0,1,.09-.25,2.68,2.68,0,0,1,.83-.49,16.09,16.09,0,0,1,2.16-.72l.74-.17c.37-.08.74-.14,1.12-.2s.72-.11,1.08-.15h0a14.18,14.18,0,0,0-1.68-.52h0c-.58-.14-1.16-.25-1.74-.34A26.46,26.46,0,0,0,23,7.17,19.79,19.79,0,0,0,16.7,8.63a23.52,23.52,0,0,0-9.14,7.18A22.55,22.55,0,0,0,3.35,26.59a35.76,35.76,0,0,0-.22,4.26,32,32,0,0,0,.46,5.78,51.47,51.47,0,0,0,4.06,11,.11.11,0,0,1,0,.19.1.1,0,0,1-.07,0,.1.1,0,0,1-.11-.11A38.68,38.68,0,0,1,5.16,43a29.69,29.69,0,0,1-2.41-7.57c-.11-.69-.18-1.39-.23-2.08v0c-.1.21-.19.41-.28.62L2,34.61c-.15.43-.29.86-.4,1.31a18.84,18.84,0,0,0-.53,3.73,38.08,38.08,0,0,0,.68,9.94,34.69,34.69,0,0,0,3.38,8.8q.7,1.38,1.53,2.7h0a30.24,30.24,0,0,0,3.08,4.14,0,0,0,0,1,0,0q.06-.3.15-.6c.06-.21.12-.42.19-.64.27-.44.49-1.75,1.16-1.47a.34.34,0,0,1,.08.47,6.3,6.3,0,0,0-.59,1.53,10.63,10.63,0,0,0-.32,1.44v0c.18.18.36.37.55.55a32.3,32.3,0,0,0,3.27,2.79,27.65,27.65,0,0,0,2.33,1.74.14.14,0,0,1,0,.28l-.07,0a2.85,2.85,0,0,1-1-.36,21.16,21.16,0,0,1-3.41-2.21c-.64-.49-1.25-1-1.83-1.55a11.93,11.93,0,0,0,.72,4.4c.07.19.14.37.22.56a16.74,16.74,0,0,0,1.08,2.16c.27.45.56.89.86,1.32a26.55,26.55,0,0,0,1.72,2.12l.65.69a32.89,32.89,0,0,0,5.37,4.4c.39.25.79.47,1.19.68l.62.3c.42.19.84.37,1.26.53a0,0,0,0,1,0,0l1.28.47.65.22h0l0,0a0,0,0,0,1,0,0h0l.39.13c.36.11.73.21,1.1.29a.47.47,0,0,1,.28.72.35.35,0,0,1-.05.08.41.41,0,0,1-.45.14q-.53-.1-1.05-.24c0,.16.07.32.1.49A34.43,34.43,0,0,0,30,96.5a41.26,41.26,0,0,0,4.38,5.74c.29.33.59.66.9,1,.61.64,1.25,1.24,1.91,1.83a0,0,0,0,0,0,0c.51.46,1,.9,1.57,1.33,1.18,1,2.42,1.85,3.68,2.71l.19-.08,0,0h0l.48.31.09.06,0,0,.08.05-.1,0-.1,0h0l.92.61c1.16.77,2.38,1.46,3.58,2.2a17.14,17.14,0,0,0,2.09,1.17.12.12,0,0,1,.18.12.13.13,0,0,1-.13.14h-.06a5.79,5.79,0,0,1-1.86-.51A20.66,20.66,0,0,1,45,111.89c-.49-.28-1-.57-1.46-.87l-.72-.45-.71-.45a0,0,0,0,0,0,0c-.77.4-1.54.83-2.28,1.28s-1.5.94-2.21,1.45a35,35,0,0,0-10,10.65c-.42.67-.81,1.36-1.17,2.06s-.7,1.4-1,2.13h0l-.08.15,0,.09h0l0,.07s0,0,0,0l0,0v0l0,0c-.11.27-.22.55-.32.83a23.13,23.13,0,0,0-1.33,4.68c-.11.84-.22,1.69-.28,2.53s0,1.71,0,2.59c0,.47,0,.93,0,1.39a.16.16,0,0,1-.14.19.16.16,0,0,1-.13-.08,3.77,3.77,0,0,1-.35-1.14,12.28,12.28,0,0,1-.22-1.48,18.88,18.88,0,0,1,.91-7.07c0-.14.09-.29.12-.44v0l-.4.36-.41.36a34.25,34.25,0,0,0-6.47,8.74,30.78,30.78,0,0,0-2.63,6.11,24.65,24.65,0,0,0-.93,3.86,48.6,48.6,0,0,0-.23,12.58c.13,1.28.35,2.54.55,3.8,0,.2,0,.4.07.6a.59.59,0,0,1,0,.14.1.1,0,0,1-.07.16h0a.12.12,0,0,1-.11-.13,23.59,23.59,0,0,1-.7-2.31q-.15-.59-.27-1.17c-.08-.39-.15-.79-.21-1.18q-.14-.81-.21-1.62c0-.26-.05-.51-.07-.77-.06-.83-.09-1.67-.09-2.51,0-.54,0-1.08,0-1.62,0-.23,0-.46,0-.69v0c-.1.22-.19.45-.27.68-.27.65-.5,1.3-.71,2-.28.9-.51,1.8-.7,2.72a33.37,33.37,0,0,0,0,14.14c.11.44.23.88.37,1.32h0c.13.44.28.87.43,1.3h0c.16.43.32.85.5,1.27h0c.17.43.37.85.57,1.26v-.07l0,.05.18.35.18.34a2.93,2.93,0,0,0,.23.43.43.43,0,0,0,.11.12h0v0s0,0,0,0l.39.62a18.26,18.26,0,0,0,3.9,4.41c.1-.06.19.1.17.17a.15.15,0,0,1-.17.12.65.65,0,0,1-.16,0,4.2,4.2,0,0,1-.6-.3,5.67,5.67,0,0,1-.73-.51c-.23-.19-.46-.4-.69-.62a24.15,24.15,0,0,1-2.16-2.54s0,0,0,0c0,.27,0,.54,0,.81,0,0,0,0,0,0h0c.61,1.35,1.26,2.68,1.94,4,.32.6.64,1.2,1,1.79s.7,1.24,1.07,1.85c.21.35.43.7.65,1.05.73,1.19,1.51,2.35,2.31,3.49.42.59.85,1.17,1.29,1.75l.23.31c.39.51.79,1,1.2,1.52s.89,1.08,1.35,1.61c.24.29.49.57.74.85.49.56,1,1.11,1.51,1.65s.89.94,1.35,1.4c0,0,0,0,0,0a0,0,0,0,1,0,0l.21.2.27.27c.36.37.73.72,1.1,1.07l1,.91s0,0,0,0c.58.54,1.18,1.06,1.78,1.57l.06,0q.81.71,1.65,1.35a5.84,5.84,0,0,0,.5.4c.44.36.89.7,1.34,1,.16.13.33.26.49.37.51.38,1,.75,1.55,1.1a2,2,0,0,0,.25.18,56.82,56.82,0,0,1-5.17-8,56.48,56.48,0,1,1,105.64-35,56.8,56.8,0,0,1,.61,8.3,56.2,56.2,0,0,1-2.69,17.25,66.67,66.67,0,0,0,4.39-6.95q.28-.5.54-1c.5-.92,1-1.85,1.42-2.79.22-.47.45-.94.66-1.42s.37-.83.54-1.24c.05-.09.08-.17.12-.25h0c.27-.64.53-1.28.78-1.93.19-.47.37-.93.54-1.41q.9-2.44,1.62-5,.48-1.66.87-3.36.6-2.61,1-5.31c.15-1,.28-2,.38-2.94A71.48,71.48,0,0,0,146.73,137Z"/>
      <path class="d" d="M154.78,172.42a.2.2,0,0,1,.1.15c.17.28.29.58.43.87s.24.56.35.84c.23.57.44,1.14.62,1.73.1.29.18.58.27.87.18-.47.35-.95.51-1.43a24.7,24.7,0,0,0-.39-16.32,20.3,20.3,0,0,0-2.19-4.52,18.68,18.68,0,0,0-2-2.33l-.87-.92-.12-.06c-.08,0-.16-.08-.1-.14s.23,0,.32,0a2.26,2.26,0,0,1,.35.17l.08,0,.24.16.4.31.3.25h0c0-.38,0-.75-.07-1.12,0-.14,0-.28,0-.42a42.41,42.41,0,0,0-2.07-10.7,33.63,33.63,0,0,0-6.43-10.72l-.17-.18c.23.64.46,1.29.68,1.94.15.45.3.9.44,1.35.48,1.53.91,3.09,1.29,4.66a71.48,71.48,0,0,1,1.57,24.75c-.1,1-.23,2-.38,2.94q-.42,2.7-1,5.31-.39,1.69-.87,3.36-.72,2.55-1.62,5c-.17.48-.35.94-.54,1.41-.25.65-.51,1.29-.78,1.93h0c0,.08-.07.16-.12.25v0c-.17.41-.35.81-.54,1.22s-.44,1-.66,1.42c-.45.94-.92,1.87-1.42,2.79q-.25.49-.54,1a66.67,66.67,0,0,1-4.39,6.95h0A56.5,56.5,0,0,1,37,212.72h0a2,2,0,0,1-.25-.18c-.52-.35-1-.72-1.55-1.1-.16-.11-.33-.24-.49-.37-.45-.32-.9-.66-1.34-1a5.84,5.84,0,0,1-.5-.4q-.84-.64-1.65-1.35l-.06,0c-.61-.5-1.2-1-1.78-1.57h0s0,0,0,0l-1-.91-1.1-1.07-.27-.26h0l-.21-.2a0,0,0,0,0,0,0s0,0,0,0c-.46-.46-.91-.93-1.35-1.4s-1-1.09-1.51-1.65c-.26-.28-.5-.56-.74-.85-.46-.53-.91-1.07-1.35-1.61s-.81-1-1.2-1.52l-.23-.31c-.44-.58-.87-1.16-1.29-1.75-.8-1.14-1.58-2.3-2.31-3.49-.23-.35-.44-.7-.65-1.05-.37-.61-.73-1.22-1.07-1.85s-.66-1.19-1-1.79c-.68-1.3-1.33-2.63-1.94-4h0s0,0,0,0c0,.23,0,.45,0,.68,0,.59.06,1.17.12,1.75s.14,1.17.23,1.74.21,1.16.34,1.73c.06.28.13.57.21.85s.15.56.23.85a.24.24,0,0,1,0,.08c.13.45.27.89.43,1.33l0,.1c.12.34.25.69.39,1a0,0,0,0,0,0,0c.09.25.19.51.3.76s.33.78.52,1.16.38.8.59,1.2c0,0,0,.08,0,.13a1.06,1.06,0,0,0,.27.63l.19.27.29.4a.64.64,0,0,0,.08.14c.16.28.33.54.51.8s.19.27.29.4l.09.13c.5.77,1,1.52,1.6,2.25.77,1,1.59,1.91,2.44,2.81a5.52,5.52,0,0,0,1.11,1.05.22.22,0,0,1-.1.41.23.23,0,0,1-.16-.07,4.52,4.52,0,0,0-.7-.6c-.45-.36-.88-.74-1.31-1.13s-.55-.52-.82-.79-.42-.42-.62-.64-.37-.4-.54-.61c-.38-.42-.73-.86-1.07-1.31h0a20.22,20.22,0,0,0,.4,2v0c.08.33.17.66.26,1s.2.66.31,1,.23.64.35,1,.26.64.4,1,.28.62.43.93.31.62.47.92a23.47,23.47,0,0,0,1.46,2.34,23.11,23.11,0,0,0,6.56,5.86,30.17,30.17,0,0,0,5.13,2.38,26.63,26.63,0,0,1,2.71,1.12.13.13,0,0,1,0,.25.15.15,0,0,1-.09,0,24,24,0,0,1-3.31-.84,20.3,20.3,0,0,1-2.34-.84L28.79,218l.13.36c.12.31.24.61.37.91,0,.12.09.23.14.35.17.41.34.8.52,1.19s.28.59.42.87.13.28.21.41c.15.31.31.61.47.9s.39.71.6,1.05h0c.23.37.46.74.71,1.1s.29.44.45.66a3.28,3.28,0,0,0,.27.38c.19.26.38.52.58.77.35.45.72.9,1.1,1.33s.77.84,1.18,1.25c.27.26.54.53.82.78a19.94,19.94,0,0,0,1.73,1.46l.92.68.94.64a19.73,19.73,0,0,0,2,1.18h0l1,.54q1,.54,2.13,1h.09a.31.31,0,0,1,.13,0s0,0,.06,0a.16.16,0,0,1,.07.07,40.76,40.76,0,0,0,6.55,2,34.43,34.43,0,0,0,4.61.79,2.44,2.44,0,0,0,.47,0l.13-.05a.26.26,0,0,1,.33.22.28.28,0,0,1-.41.27c-.43,0-.87,0-1.31,0l-.78,0h0c-.73-.06-1.45-.15-2.17-.26l-.82-.14c-.27,0-.54-.1-.81-.16a32.28,32.28,0,0,1-4.77-1.35h0c.16.18.32.36.5.54l.54.55.54.53.55.53c.22.21.45.4.68.6.47.39.95.75,1.44,1.1.24.17.5.34.76.5.5.33,1,.63,1.54.91.32.17.64.33,1,.48l.55.26c.4.19.82.36,1.24.52.26.11.52.2.79.3q.73.25,1.5.48c.57.16,1.13.31,1.71.44h0c.59.13,1.18.24,1.77.34l.16,0h.07c.85.11,1.7.2,2.56.28l.45,0a29.75,29.75,0,0,0,3.53.12,5.19,5.19,0,0,0,.56,0c.36,0,.71,0,1.06-.06l.71-.07q.7-.09,1.41-.21c.47-.09.93-.2,1.39-.32h0l.63-.18c.61-.2,1.21-.48,1.81-.71,0-.09.19-.07.26,0,.17.24-.39.58-.56.7l-.19.1h0c.36.13.72.26,1.08.37a25.54,25.54,0,0,0,3.32.82c.75.13,1.5.24,2.26.31s1.52.12,2.28.14a37.16,37.16,0,0,0,7-.53,36.21,36.21,0,0,0,7.74-2.42,21.71,21.71,0,0,0,6-4.15c0-.1.1-.14.16-.2s.18-.07.22,0c.1.26-.23.65-.37.86a9.85,9.85,0,0,1-.67.78q-.36.38-.75.72c.58-.1,1.16-.22,1.72-.37a22.28,22.28,0,0,0,7.74-3.91c.6-.47,1.18-1,1.74-1.49l.81-.79c.27-.27.54-.55.8-.83h0l-.14,0,.13-.05h0l.09,0c.67-.74,1.32-1.5,1.93-2.28a24.79,24.79,0,0,0,2.71-4.09.17.17,0,0,1,.16-.26.18.18,0,0,1,.1.32,10.72,10.72,0,0,1-1,2.55,10.27,10.27,0,0,1-.67,1.16h0c-.23.38-.49.74-.76,1.1l.46-.15c.31-.1.61-.19.91-.3a31.83,31.83,0,0,0,8.22-4.47,17.8,17.8,0,0,0,3.94-4.19.57.57,0,0,0,.36-.28c.11-.21.2-.42.3-.63l.33-.66a1.09,1.09,0,0,0,.08-.15,29.64,29.64,0,0,0,2.27-5.23c.36-1,.76-2.07,1.15-3.1.11-.27.2-.56.33-.83a.2.2,0,0,1,.2-.17c.41,0,.07,1,.05,1.27a28.79,28.79,0,0,1-.81,3.42c-.06.18-.12.37-.19.55s-.12.37-.19.54c-.14.4-.3.8-.46,1.18l-.45,1a27.11,27.11,0,0,0,3.38-2.24,27.56,27.56,0,0,0,6.59-6.65,23.89,23.89,0,0,0,2-3.55l-.05,0,0-.06.12-.2c.33-.73.62-1.48.88-2.24a20.65,20.65,0,0,0,.64-2.3,24,24,0,0,0,.45-3.16,5.23,5.23,0,0,0,0-1.25.22.22,0,1,1,.31-.13,11.76,11.76,0,0,1,.11,3c0,.42-.06.83-.12,1.24h0c0,.4-.12.79-.2,1.18,0,0,0,0,0,0a32.24,32.24,0,0,0,2-2.91,29.31,29.31,0,0,0,2.37-4.46,27.5,27.5,0,0,0,2.06-10.52,38.85,38.85,0,0,0-.28-6.38,28.22,28.22,0,0,0-1.75-7.36C154.36,172.64,154.55,172.29,154.78,172.42Zm-38.25,62h0l0,0a.38.38,0,0,0,.15,0A.8.8,0,0,1,116.53,234.44Z"/>
      <path class="d" d="M143.23,176.35c0,1.88-.08,3.74-.26,5.57v0a61.6,61.6,0,0,1-38.43,51.58c-.68.27-1.37.53-2.06.78h0c-1.22.44-2.47.84-3.73,1.2s-2.53.68-3.83,1c-.87.19-1.74.36-2.62.51s-1.76.29-2.65.4l-.19,0c-1.48.19-3,.32-4.48.4-1,.05-2.1.08-3.16.08h-.09l-1.5,0c-.52,0-1,0-1.57-.06l-1.57-.1c-.69-.05-1.37-.12-2-.19-1.31-.14-2.61-.32-3.89-.55h0a61.59,61.59,0,0,1-44.28-32.76,0,0,0,0,0,0,0,61.64,61.64,0,0,1-4.92-13.35l.16.3c.63,1.19,1.3,2.35,2,3.49a60.33,60.33,0,0,0,7.81,10.11,56.82,56.82,0,0,0,5.17,8h0a56.5,56.5,0,0,0,98.38-17.4h0a56.2,56.2,0,0,0,2.69-17.25,56.8,56.8,0,0,0-.61-8.3,61.92,61.92,0,0,0-.49-18.2c-.23-1.26-.49-2.51-.79-3.75a61.09,61.09,0,0,1,6.6,21.43A61.72,61.72,0,0,1,143.23,176.35Z"/>
      <path class="d" d="M116.53,234.42a.55.55,0,0,0,.22,0l-.22,0h0Z"/>
      <path class="d" d="M128.48,97.21a11.47,11.47,0,0,1-1.83,1.67,10.27,10.27,0,0,1-6.08,10.63,10.93,10.93,0,0,1-4.86,1,10.48,10.48,0,0,1-6,7.56,10.87,10.87,0,0,1-5.46,1,10.32,10.32,0,0,1-4.88-1.67l-.23-.15a10.77,10.77,0,0,1-.93-.74c.31-.14.62-.3.92-.46a4.69,4.69,0,0,1-1.75-1.31.23.23,0,0,1,.35-.31,8,8,0,0,0,2.57.89,12.46,12.46,0,0,0,5.23,0,13.86,13.86,0,0,0,6.79-3.42,12.06,12.06,0,0,0,2.32-3.61l-.2,0c-.2,0-.41,0-.61,0a5.09,5.09,0,0,1-1.68-.39.2.2,0,0,1-.26-.2.19.19,0,0,1,.24-.2,3.37,3.37,0,0,1,1-.08,6.26,6.26,0,0,0,.75,0,16,16,0,0,0,3-.48,12.82,12.82,0,0,0,4.57-2.08A9.63,9.63,0,0,0,125,99.07a5.88,5.88,0,0,1-3,1.72,1.6,1.6,0,0,1-.38,0,.16.16,0,0,1-.22-.13.15.15,0,0,1,.22-.16,6.91,6.91,0,0,0,3.13-2.09,12.63,12.63,0,0,0,3-5.66,22,22,0,0,0,.64-5.59,15.31,15.31,0,0,0-.17-2c-.06-.43-.15-.85-.25-1.27a.34.34,0,0,1,.18-.38,6.47,6.47,0,0,1,.61.67A10.11,10.11,0,0,1,128.48,97.21Z"/>
      <path class="e" d="M142.8,168.39c0,.28,0,.56,0,.85s0,.56,0,.84a59.52,59.52,0,0,1-.52,7.83V178A60.53,60.53,0,0,1,29.4,206.68s0,0,0,0a59.79,59.79,0,0,1-7.88-24.45h0A58.38,58.38,0,0,1,20.33,173c-.06,1.12-.09,2.25-.09,3.38A61.16,61.16,0,0,0,27,204.41h0A61.81,61.81,0,0,0,71.09,237h0c1.29.22,2.58.41,3.89.55.68.07,1.36.14,2,.19l1.57.1c.52,0,1,.05,1.57.06l1.5,0h.09c1.06,0,2.12,0,3.16-.08,1.51-.08,3-.21,4.48-.4l.19,0c.89-.11,1.77-.25,2.65-.4s1.75-.32,2.62-.51c1.3-.28,2.57-.6,3.83-1s2.51-.76,3.73-1.2h0c.69-.25,1.38-.51,2.06-.78a59.55,59.55,0,0,0,7.83-3.8,61.57,61.57,0,0,0,30.72-48.05h0c.15-1.75.23-3.52.23-5.31A61.63,61.63,0,0,0,142.8,168.39Zm-13.53-82c-.07-.61-.18-1.23-.31-1.83,0-.15-.06-.3-.1-.44s-.08-.32-.13-.48a.35.35,0,0,0-.44-.21l0,0a.16.16,0,0,0-.08.06.1.1,0,0,0,0,.06.2.2,0,0,0,0,.08.36.36,0,0,0,0,.1.22.22,0,0,0,0,.08c.1.42.19.84.25,1.27a15.31,15.31,0,0,1,.17,2,22,22,0,0,1-.64,5.59,12.63,12.63,0,0,1-3,5.66,6.91,6.91,0,0,1-3.13,2.09.15.15,0,0,0-.22.16.16.16,0,0,0,.22.13h.16l.22,0a3.78,3.78,0,0,0,.83-.24l.34-.16a2,2,0,0,0,.32-.18l.32-.2.3-.22c.18-.13.36-.27.53-.42l.32-.3a.43.43,0,0,0,0,.11l0,.12c0,.2-.09.41-.15.61a5.39,5.39,0,0,1-.22.64s0,.07,0,.11a.84.84,0,0,1-.08.2,3.38,3.38,0,0,1-.18.44l-.17.36c-.11.2-.22.41-.34.61a9.83,9.83,0,0,1-1,1.38,6,6,0,0,1-.61.62q-.32.3-.66.57a12.82,12.82,0,0,1-4.57,2.08,16,16,0,0,1-3,.48,6.26,6.26,0,0,1-.75,0,3.37,3.37,0,0,0-1,.08.19.19,0,0,0-.24.2.2.2,0,0,0,.26.2l.4.15.32.09h0a2.84,2.84,0,0,0,.49.1l.43,0c.2,0,.41,0,.61,0h.2c-.08.16-.15.32-.22.48h0c-.15.32-.32.64-.5,1-.09.15-.18.31-.28.46a10.77,10.77,0,0,1-.61.89c-.22.28-.46.55-.71.81s-.37.34-.56.5a1.94,1.94,0,0,1-.29.23l-.15.12a5.6,5.6,0,0,1-.49.36l-.59.38h0a3.07,3.07,0,0,1-.39.23l-.58.31-.16.07a6.11,6.11,0,0,1-.58.27l-.4.17-.6.22-.43.14a5.76,5.76,0,0,1-.59.18c.63.27,1.25.56,1.86.85l.64-.26a6.28,6.28,0,0,0,.59-.27l.06,0a5.12,5.12,0,0,0,.57-.3c.21-.11.42-.23.62-.36a13.21,13.21,0,0,0,5-6.28l.1-.24h0l.68-.11c.45-.09.9-.19,1.35-.31l.66-.19.87-.28a9.53,9.53,0,0,0,6-6.12,10.44,10.44,0,0,0,.38-1.56c.09-.53.14-1.06.18-1.6a14.16,14.16,0,0,0,2.92-6.2A17.83,17.83,0,0,0,129.27,86.42Zm13.7,95.5c-.17.41-.35.83-.54,1.24s-.44,1-.66,1.42A60.53,60.53,0,0,1,29.4,206.68s0,0,0,0l-1-.91-1.1-1.07-.27-.26A61.81,61.81,0,0,0,71.09,237h0c1.29.22,2.58.41,3.89.55.68.07,1.36.14,2,.19l1.57.1c.52,0,1,.05,1.57.06l1.5,0h.09c1.06,0,2.12,0,3.16-.08,1.51-.08,3-.21,4.48-.4l.19,0c.89-.11,1.77-.25,2.65-.4s1.75-.32,2.62-.51c1.3-.28,2.57-.6,3.83-1s2.51-.76,3.73-1.2h0c.69-.25,1.38-.51,2.06-.78a59.55,59.55,0,0,0,7.83-3.8,61.57,61.57,0,0,0,30.72-48.05C143.05,181.75,143,181.83,143,181.92Zm0,0v0c-.17.41-.35.81-.54,1.22s-.44,1-.66,1.42A60.53,60.53,0,0,1,29.4,206.68s0,0,0,0l-1-.91-1.1-1.07-.27-.26A61.81,61.81,0,0,0,71.09,237h0c1.29.22,2.58.41,3.89.55.68.07,1.36.14,2,.19l1.57.1c.52,0,1,.05,1.57.06l1.5,0h.09c1.06,0,2.12,0,3.16-.08,1.51-.08,3-.21,4.48-.4l.19,0c.89-.11,1.77-.25,2.65-.4s1.75-.32,2.62-.51c1.3-.28,2.57-.6,3.83-1s2.51-.76,3.73-1.2h0c.69-.25,1.38-.51,2.06-.78a59.55,59.55,0,0,0,7.83-3.8,61.57,61.57,0,0,0,30.72-48.05C143.05,181.75,143,181.83,143,181.92Zm16.15-15.49a28.29,28.29,0,0,0-1.22-6.58,17.27,17.27,0,0,0-3.38-6.32c-.06-.06-.12-.1-.17-.16a53.43,53.43,0,0,0-.38-5.79,32,32,0,0,0-3.83-12.21,25.09,25.09,0,0,0-5.21-7,17.33,17.33,0,0,0,2.25-8,11.26,11.26,0,0,0-.12-1.95,11.75,11.75,0,0,0,1.22-2.82,13.17,13.17,0,0,0-.38-7.09c.11-.52.21-1,.31-1.55a16.17,16.17,0,0,0-.27-7.82,12.26,12.26,0,0,0,1.4-3.39c.8-3.4-.08-7-1.14-10.26l-.27-.72c0-.24.09-.48.12-.73a35.3,35.3,0,0,0,.17-4.12,25.26,25.26,0,0,0-.48-5.49c-.24-.94-.5-1.86-.8-2.78a21.21,21.21,0,0,0-2.77-5.5,10.31,10.31,0,0,0,.16-4.39,22.83,22.83,0,0,0-1.07-4.31c-1.5-4-4.08-6.12-7.51-8.43a16.45,16.45,0,0,0-4.06-2.08A11.25,11.25,0,0,0,129,44.64a13.89,13.89,0,0,0-5.25-2.16,14.06,14.06,0,0,0-7.38.73,21.75,21.75,0,0,0-10.66-.46,19.21,19.21,0,0,0-9.75,5.64,12.87,12.87,0,0,0-3.09,1.52,26.6,26.6,0,0,0-5.52,4.57,25.59,25.59,0,0,0-4.89,7.85c-.28.16-.54.32-.8.5-.19-.87-.41-1.72-.67-2.57A32.34,32.34,0,0,0,78,53.1c-.12-.22-.25-.44-.38-.66a19.88,19.88,0,0,0-1-3.94,24.61,24.61,0,0,0-4.84-8.23,25.12,25.12,0,0,0-3.74-3.16,38.65,38.65,0,0,0-2.18-4.71,35.34,35.34,0,0,0-3.11-4.79,33.54,33.54,0,0,0-8-7,16.65,16.65,0,0,0-3-4.76,21.45,21.45,0,0,0-6.84-5A24.83,24.83,0,0,0,37,8.28c-.87-.09-1.75-.13-2.62-.14A15.18,15.18,0,0,0,31.93,7a20.92,20.92,0,0,0-8.1-.88A22.79,22.79,0,0,0,3,24.22a29.11,29.11,0,0,0-.58,6.32c0,.33,0,.66,0,1a14.4,14.4,0,0,0-1.31,2.71C-.73,39.09-.1,48,1.57,52.87a36.3,36.3,0,0,0,8,13.55C8.54,75.05,17,83.22,25,85.85c.08.42.15.85.24,1.27a38.32,38.32,0,0,0,2.38,7,22.62,22.62,0,0,0,2.07,3.81,43.07,43.07,0,0,0,10.58,11l1.11.75c-.67.33-1.33.68-2,1.06a36.07,36.07,0,0,0-11.59,10.67,30.47,30.47,0,0,0-4,7.52c-.48.39-1,.79-1.42,1.2A37.74,37.74,0,0,0,11.78,149.5c-.18,1.1-.29,2.2-.38,3.3-.44.81-.87,1.63-1.24,2.48a30.17,30.17,0,0,0-2.1,9.43,39.74,39.74,0,0,0,0,4.5,24.57,24.57,0,0,0,3.25,11.67A30.57,30.57,0,0,0,16,198.82c0,.33.05.65.1,1a25.7,25.7,0,0,0,2.64,8.41,19,19,0,0,0,3,4.44,25.61,25.61,0,0,0,5.61,4.55,23,23,0,0,0,1.75,4.27,32.21,32.21,0,0,0,7.41,9.94,34.86,34.86,0,0,0,9,5.35l.48.65c4.72,6.29,12.84,9.09,20.48,9.31a19.58,19.58,0,0,0,8.29-1.22,25.68,25.68,0,0,0,8.83,1.9l1.37,0c1.74,0,3.49-.11,5.23-.28a28.56,28.56,0,0,0,6.4-1.39,21.27,21.27,0,0,0,6.28-3.05l.13-.1a22.2,22.2,0,0,0,4-.75,23,23,0,0,0,9.74-6c.57-.57,1.14-1.15,1.68-1.76a23.36,23.36,0,0,0,5-1.74c5.42-2.58,9.33-5.69,11.94-10.48a22.5,22.5,0,0,0,2.26-1.11,31.93,31.93,0,0,0,3.42-2.47,24.35,24.35,0,0,0,7.83-9.89c.24-.56.45-1.14.64-1.72.17-.17.33-.34.49-.52a30.33,30.33,0,0,0,5.57-8.94,22.85,22.85,0,0,0,1.42-4.55,25.66,25.66,0,0,0,.4-3.92,51.87,51.87,0,0,0,0-6,29.51,29.51,0,0,0-.49-4.29,29.73,29.73,0,0,0,1.72-5.37A29,29,0,0,0,159.12,166.43Zm-2.06,9c-.16.48-.33,1-.51,1.43-.09-.29-.17-.58-.27-.87-.19-.59-.4-1.16-.62-1.73-.11-.28-.23-.56-.35-.84s-.26-.59-.43-.87a.2.2,0,0,0-.1-.15c-.23-.13-.42.22-.21.34a28.22,28.22,0,0,1,1.75,7.36,38.85,38.85,0,0,1,.28,6.38A27.5,27.5,0,0,1,154.54,197a29.31,29.31,0,0,1-2.37,4.46c-.62,1-1.3,1.94-2,2.86l0,0c.08-.4.16-.81.22-1.21h0c.06-.41.1-.82.12-1.24a11.76,11.76,0,0,0-.11-3,.22.22,0,1,0-.31.13,5.23,5.23,0,0,1,0,1.25,24,24,0,0,1-.45,3.16,20.65,20.65,0,0,1-.64,2.3c-.26.76-.56,1.51-.89,2.24a2,2,0,0,1-.11.2l0,.06.05,0a23.89,23.89,0,0,1-2,3.55,27.56,27.56,0,0,1-6.59,6.65,27.11,27.11,0,0,1-3.38,2.24l.45-1c.16-.38.32-.78.46-1.18.07-.17.13-.35.19-.54s.13-.37.19-.55a28.79,28.79,0,0,0,.81-3.42c0-.24.36-1.28-.05-1.27a.2.2,0,0,0-.2.17c-.13.27-.22.56-.33.83-.39,1-.79,2.06-1.15,3.1a29.64,29.64,0,0,1-2.27,5.23,1.09,1.09,0,0,1-.08.15l-.33.66c-.1.21-.19.42-.3.63a.57.57,0,0,1-.36.28,17.8,17.8,0,0,1-3.94,4.19,31.83,31.83,0,0,1-8.22,4.47c-.3.11-.6.2-.91.3l-.46.15h0c.27-.36.54-.73.79-1.11h0c.24-.38.47-.76.67-1.16a10.72,10.72,0,0,0,1-2.55.18.18,0,0,0-.1-.32.17.17,0,0,0-.16.26,24.79,24.79,0,0,1-2.71,4.09c-.61.78-1.27,1.53-1.94,2.27l-.08,0h0l-.13.05.15,0h0l-.77.82-.81.79c-.56.52-1.14,1-1.74,1.49a22.28,22.28,0,0,1-7.74,3.91c-.56.15-1.14.27-1.72.37q.39-.34.75-.72a9.85,9.85,0,0,0,.67-.78c.14-.21.47-.6.37-.86,0-.1-.15-.08-.22,0s-.19.1-.16.2a21.71,21.71,0,0,1-6,4.15,36.21,36.21,0,0,1-7.74,2.42,37.16,37.16,0,0,1-7,.53c-.76,0-1.52-.07-2.28-.14s-1.51-.18-2.26-.31a25.54,25.54,0,0,1-3.32-.82L75.81,245l.19-.1c.17-.12.73-.46.56-.7-.07-.06-.21-.08-.26,0-.6.23-1.2.51-1.81.71a4.71,4.71,0,0,1-.64.19c-.46.12-.92.23-1.39.32s-.94.15-1.41.21l-.71.07c-.35,0-.7.05-1.06.06a5.19,5.19,0,0,1-.56,0,32.2,32.2,0,0,1-3.53-.12l-.45,0c-.86-.08-1.71-.17-2.56-.28h-.07l-.15,0H61.9c-.57-.09-1.15-.21-1.72-.34h0c-.57-.13-1.14-.27-1.71-.44s-1-.31-1.5-.48c-.27-.1-.53-.19-.79-.3-.42-.16-.84-.33-1.24-.52a5.52,5.52,0,0,1-.55-.26c-.33-.15-.65-.31-1-.48-.53-.28-1-.58-1.54-.91-.26-.16-.52-.33-.76-.5-.49-.35-1-.71-1.44-1.1-.23-.2-.46-.39-.68-.6l-.55-.53-.54-.53-.54-.55-.48-.53,0,0a35.08,35.08,0,0,0,4.8,1.39l.81.16.82.14c.72.11,1.44.2,2.17.26h0l.78,0c.44,0,.88,0,1.31,0a.28.28,0,0,0,.41-.27.26.26,0,0,0-.33-.22l-.13.05a2.44,2.44,0,0,1-.47,0,34.43,34.43,0,0,1-4.61-.79,40.76,40.76,0,0,1-6.55-2,.46.46,0,0,0-.07-.07l-.06,0a.31.31,0,0,0-.13,0h-.06c-.74-.3-1.46-.63-2.16-1l-1-.54h0c-.67-.37-1.33-.76-2-1.18l-.94-.64-.92-.68c-.59-.46-1.17-1-1.73-1.46-.28-.25-.55-.52-.82-.78-.41-.41-.8-.82-1.18-1.25s-.75-.88-1.1-1.33c-.2-.25-.39-.51-.58-.77a3.28,3.28,0,0,1-.27-.38q-.24-.33-.45-.66c-.25-.36-.48-.73-.71-1.1h0q-.31-.51-.6-1.05c-.16-.29-.32-.59-.47-.9-.08-.13-.14-.27-.21-.41s-.28-.57-.42-.87-.35-.78-.52-1.19c-.05-.12-.1-.23-.14-.35-.13-.3-.25-.6-.37-.91l-.13-.36,1.07.52a20.3,20.3,0,0,0,2.34.84,24,24,0,0,0,3.31.84.15.15,0,0,0,.09,0,.13.13,0,0,0,0-.25,26.63,26.63,0,0,0-2.71-1.12,30.17,30.17,0,0,1-5.13-2.38,23.11,23.11,0,0,1-6.56-5.86,23.47,23.47,0,0,1-1.46-2.34c-.16-.3-.32-.61-.47-.92s-.3-.62-.43-.93-.27-.64-.4-1-.24-.64-.35-1-.21-.66-.31-1-.18-.66-.26-1v0q-.24-1-.39-2v0a17,17,0,0,0,1.07,1.34c.17.21.36.41.54.61s.41.43.62.64.54.54.82.79.86.77,1.31,1.13a4.52,4.52,0,0,1,.7.6.23.23,0,0,0,.16.07.22.22,0,0,0,.1-.41,5.52,5.52,0,0,1-1.11-1.05c-.85-.9-1.67-1.84-2.44-2.81-.56-.73-1.1-1.48-1.6-2.25l-.09-.13c-.1-.13-.2-.26-.29-.4s-.35-.52-.51-.8a.64.64,0,0,1-.08-.14l-.29-.4-.19-.27a1.06,1.06,0,0,1-.27-.63c0-.05,0-.09,0-.13-.21-.4-.41-.8-.59-1.2s-.36-.77-.52-1.16-.21-.51-.3-.76a0,0,0,0,1,0,0c-.14-.34-.27-.69-.39-1l0-.1c-.16-.44-.3-.88-.43-1.33a.24.24,0,0,0,0-.08c-.08-.29-.16-.57-.23-.85s-.15-.57-.21-.85c-.13-.57-.24-1.15-.34-1.73s-.17-1.15-.23-1.74-.1-1.16-.12-1.75c0-.22,0-.43,0-.65h0c0-.28,0-.54,0-.81a24.15,24.15,0,0,0,2.16,2.54,7.88,7.88,0,0,0,.69.62,5.67,5.67,0,0,0,.73.51,4.2,4.2,0,0,0,.6.3.65.65,0,0,0,.16,0,.15.15,0,0,0,.17-.12c0-.07-.07-.23-.17-.17a18.26,18.26,0,0,1-3.9-4.41c-.14-.21-.25-.44-.38-.66v0h0a.43.43,0,0,1-.11-.12,2.93,2.93,0,0,1-.23-.43l-.18-.34-.18-.35,0-.05v0c-.2-.4-.39-.82-.57-1.23h0c-.18-.42-.34-.84-.5-1.27h0c-.15-.43-.3-.86-.43-1.3h0c-.14-.44-.26-.88-.37-1.32a33.37,33.37,0,0,1,0-14.14c.19-.92.42-1.82.7-2.72.21-.66.44-1.31.71-2,0-.1.08-.21.13-.32s.09-.22.14-.32v0c0,.24,0,.48,0,.72,0,.54,0,1.08,0,1.62,0,.84,0,1.68.09,2.51,0,.26,0,.51.07.77q.08.81.21,1.62c.06.39.13.79.21,1.18s.17.78.27,1.17a23.59,23.59,0,0,0,.7,2.31.12.12,0,0,0,.11.13h0a.1.1,0,0,0,.07-.16.59.59,0,0,0,0-.14c0-.2-.05-.4-.07-.6-.2-1.26-.42-2.52-.55-3.8a48.6,48.6,0,0,1,.23-12.58,24.65,24.65,0,0,1,.93-3.86,30.78,30.78,0,0,1,2.63-6.11,34.25,34.25,0,0,1,6.47-8.74l.41-.36.39-.34h0c-.05.15-.1.3-.14.45a18.88,18.88,0,0,0-.91,7.07,12.28,12.28,0,0,0,.22,1.48,3.77,3.77,0,0,0,.35,1.14.16.16,0,0,0,.13.08.16.16,0,0,0,.14-.19c0-.46,0-.92,0-1.39,0-.88,0-1.68,0-2.59s.17-1.69.28-2.53a23.13,23.13,0,0,1,1.33-4.68c.11-.29.23-.57.34-.86a.14.14,0,0,0,0-.06s0,0,0,0l0-.07h0l0-.09.08-.15,0,0h0c.31-.73.64-1.44,1-2.13s.75-1.39,1.17-2.06a35,35,0,0,1,10-10.65c.71-.51,1.45-1,2.21-1.45s1.51-.87,2.29-1.27a0,0,0,0,1,0,0l.7.46.72.45c.48.3,1,.59,1.46.87a20.66,20.66,0,0,0,2.91,1.43,5.79,5.79,0,0,0,1.86.51h.06a.13.13,0,0,0,.13-.14.12.12,0,0,0-.18-.12,17.14,17.14,0,0,1-2.09-1.17c-1.2-.74-2.42-1.43-3.58-2.2l-.92-.61.09,0,.1,0-.08-.05,0,0-.09-.06-.48-.31h0l0,0-.18.09a0,0,0,0,1,0,0c-1.26-.86-2.5-1.76-3.68-2.71-.54-.43-1.06-.87-1.57-1.33a0,0,0,0,1,0,0c-.66-.59-1.3-1.19-1.91-1.83-.31-.32-.61-.65-.9-1A41.26,41.26,0,0,1,30,96.5a34.43,34.43,0,0,1-3.69-9.81c0-.17-.06-.33-.1-.49q.52.14,1.05.24a.41.41,0,0,0,.45-.14.35.35,0,0,0,.05-.08.47.47,0,0,0-.28-.72c-.37-.08-.74-.18-1.1-.29L26,85.07a0,0,0,0,0,0,0h-.05l-.65-.22L24,84.36a0,0,0,0,0,0,0c-.42-.16-.84-.34-1.26-.53l-.62-.3c-.4-.21-.8-.43-1.19-.68a32.89,32.89,0,0,1-5.37-4.4l-.65-.69a26.55,26.55,0,0,1-1.72-2.12c-.3-.43-.59-.87-.86-1.32a16.74,16.74,0,0,1-1.08-2.16c-.08-.19-.15-.37-.22-.56a11.93,11.93,0,0,1-.72-4.4,22.69,22.69,0,0,0,1.83,1.55A21.16,21.16,0,0,0,15.54,71a2.85,2.85,0,0,0,1,.36l.07,0a.14.14,0,0,0,0-.28,27.65,27.65,0,0,1-2.33-1.74A32.3,32.3,0,0,1,11,66.52c-.2-.19-.36-.39-.55-.58a10.63,10.63,0,0,1,.32-1.44A6.3,6.3,0,0,1,11.32,63a.34.34,0,0,0-.08-.47c-.67-.28-.89,1-1.16,1.47-.07.22-.13.43-.19.64s-.1.41-.14.61h0A31.75,31.75,0,0,1,6.65,61.1h0q-.83-1.32-1.53-2.7a34.69,34.69,0,0,1-3.38-8.8,38.08,38.08,0,0,1-.68-9.94,18.84,18.84,0,0,1,.53-3.73c.11-.45.25-.88.4-1.31L2.24,34c.09-.2.18-.4.28-.6,0,0,0,0,0,0,.05.7.11,1.4.22,2.1A29.69,29.69,0,0,0,5.16,43,38.68,38.68,0,0,0,7.5,47.72a.1.1,0,0,0,.11.11.1.1,0,0,0,.07,0,.11.11,0,0,0,0-.19,51.47,51.47,0,0,1-4.06-11,32,32,0,0,1-.46-5.78,35.76,35.76,0,0,1,.22-4.26A22.55,22.55,0,0,1,7.56,15.81,23.52,23.52,0,0,1,16.7,8.63,19.79,19.79,0,0,1,23,7.17a26.46,26.46,0,0,1,5.41.2c.58.09,1.16.2,1.74.34h0c.56.15,1.11.32,1.66.52l0,0c-.38,0-.76.08-1.13.13s-.75.12-1.12.2l-.74.17a16.09,16.09,0,0,0-2.16.72,2.68,2.68,0,0,0-.83.49.15.15,0,0,0-.09.25.15.15,0,0,0,.25-.07,10.56,10.56,0,0,1,2.21-.64A23.51,23.51,0,0,1,39,9.5a24.41,24.41,0,0,1,6.35,2.6A23.81,23.81,0,0,1,49,14.49a18.22,18.22,0,0,1,4,5s0,0,0,0l-.66-.36c-.39-.21-.79-.42-1.2-.62l-.81-.38a7.83,7.83,0,0,0-1.89-.65.11.11,0,1,0,0,.22,35.46,35.46,0,0,1,11,7.8,36.86,36.86,0,0,1,5.43,7.41l.39.74c.37.75.71,1.51,1,2.27-1-.64-2.14-1.22-3.23-1.76-.33-.17-4.06-1.76-3.82-.94a20.49,20.49,0,0,1,4.49,2,27.07,27.07,0,0,1,8.71,7.46A23.2,23.2,0,0,1,74.82,47c.18.39.36.8.51,1.22h0c.15.41.29.84.42,1.26,0,0,0,0,0,0-.19-.28-.39-.56-.6-.82s-.41-.54-.63-.8q-.66-.78-1.38-1.5a16.51,16.51,0,0,0-1.86-1.58c-.16-.09-.87-.55-.92-.19a.16.16,0,0,0,.15.16c.71.7,1.44,1.42,2.12,2.15.94,1.07,1.82,2.18,2.66,3.33a36.78,36.78,0,0,1,2.27,3.71s0,0,0,0h0l0,0,.18.45s0-.09,0-.13v0l.33.65c.34.68.65,1.36.94,2.06a31.79,31.79,0,0,1,1.74,6.28v0l-.27.21-.26.21-.48.42a14.55,14.55,0,0,0-3.4,5.16c-.17.39-.32.78-.46,1.17a24.51,24.51,0,0,0-1,3.64c-.12.62-.22,1.24-.29,1.87-.14,1-.22,2.08-.26,3.13l-.47.7a19.31,19.31,0,0,0-2.34,5.38,24,24,0,0,0-.72,4.24c-.06.67-.1,1.35-.1,2A10.68,10.68,0,0,0,69.86,93a13.18,13.18,0,0,0-.52,11c.18.52.37,1,.59,1.54s.34.75.53,1.11.4.72.62,1.07a10.62,10.62,0,0,0,1.54,1.93c.27.25.55.5.84.73a.91.91,0,0,0,.16.11c.16.13.33.25.5.37l.67.43h0c.24.13.48.26.73.37a6.81,6.81,0,0,0,.74.31h0l.15.2.45.55c.21.24.41.48.63.7a20,20,0,0,0,1.53,1.39A61.54,61.54,0,0,0,20.33,173c-.06,1.12-.09,2.25-.09,3.38A61.16,61.16,0,0,0,27,204.41h0A61.81,61.81,0,0,0,71.09,237h0c1.29.22,2.58.41,3.89.55.68.07,1.36.14,2,.19l1.57.1c.52,0,1,.05,1.57.06l1.5,0h.09c1.06,0,2.12,0,3.16-.08,1.51-.08,3-.21,4.48-.4l.19,0c.89-.11,1.77-.25,2.65-.4s1.75-.32,2.62-.51c1.3-.28,2.57-.6,3.83-1s2.51-.76,3.73-1.2h0c.69-.25,1.38-.51,2.06-.78a59.55,59.55,0,0,0,7.83-3.8,61.57,61.57,0,0,0,30.72-48.05h0c.15-1.75.23-3.52.23-5.31A61.6,61.6,0,0,0,104.23,119q-2.39-.93-4.88-1.67l-.31-.1.08,0,.63-.38.54-.37a10.6,10.6,0,0,0,2,.37c.33,0,.67,0,1,0s.57,0,.85,0a13.89,13.89,0,0,0,1.58-.18l.53-.1c.33-.07.65-.15,1-.24s.49-.15.74-.24l.07,0,.33-.12.64-.26a6.28,6.28,0,0,0,.59-.27l.06,0a5.12,5.12,0,0,0,.57-.3c.21-.11.42-.23.62-.36a13.21,13.21,0,0,0,5-6.28l.1-.24h0l.68-.11c.45-.09.9-.19,1.35-.31l.66-.19.87-.28a9.53,9.53,0,0,0,6-6.12,10.44,10.44,0,0,0,.38-1.56c.09-.53.14-1.06.18-1.6a14.16,14.16,0,0,0,2.92-6.2,17.83,17.83,0,0,0,.37-5.41c-.07-.61-.18-1.23-.31-1.83,0-.15-.06-.3-.1-.44s-.08-.32-.13-.48a.35.35,0,0,0-.44-.21l0,0a.16.16,0,0,0-.08.06.1.1,0,0,0,0,.06.2.2,0,0,0,0,.08.36.36,0,0,0,0,.1.22.22,0,0,0,0,.08c.1.42.19.84.25,1.27a15.31,15.31,0,0,1,.17,2,22,22,0,0,1-.64,5.59,12.63,12.63,0,0,1-3,5.66,6.91,6.91,0,0,1-3.13,2.09.15.15,0,0,0-.22.16.16.16,0,0,0,.22.13h.16l.22,0a3.78,3.78,0,0,0,.83-.24l.34-.16a2,2,0,0,0,.32-.18l.32-.2.3-.22c.18-.13.36-.27.53-.42l.32-.3a.43.43,0,0,0,0,.11l0,.12c0,.2-.09.41-.15.61a5.39,5.39,0,0,1-.22.64s0,.07,0,.11a.84.84,0,0,1-.08.2,3.38,3.38,0,0,1-.18.44l-.17.36c-.11.2-.22.41-.34.61a9.83,9.83,0,0,1-1,1.38,6,6,0,0,1-.61.62q-.32.3-.66.57a12.82,12.82,0,0,1-4.57,2.08,16,16,0,0,1-3,.48,6.26,6.26,0,0,1-.75,0,3.37,3.37,0,0,0-1,.08.19.19,0,0,0-.24.2.2.2,0,0,0,.26.2l.4.15.32.09h0a2.84,2.84,0,0,0,.49.1l.43,0c.2,0,.41,0,.61,0h.2c-.08.16-.15.32-.22.48h0c-.15.32-.32.64-.5,1-.09.15-.18.31-.28.46a10.77,10.77,0,0,1-.61.89c-.22.28-.46.55-.71.81s-.37.34-.56.5a1.94,1.94,0,0,1-.29.23l-.15.12a5.6,5.6,0,0,1-.49.36l-.59.38h0a3.07,3.07,0,0,1-.39.23l-.58.31-.16.07a6.11,6.11,0,0,1-.58.27l-.4.17-.6.22-.43.14a5.76,5.76,0,0,1-.59.18c-.32.09-.64.16-1,.23a12.46,12.46,0,0,1-5.23,0,8,8,0,0,1-2.57-.89.23.23,0,0,0-.35.31A4.69,4.69,0,0,0,99.11,116c-.3.16-.61.32-.92.46l-.92.41-1,.34c-.32.1-.65.2-1,.28s-.66.16-1,.22a21,21,0,0,1-9.61-.82,16.82,16.82,0,0,1-6.23-4c-.25-.26-.5-.53-.73-.81a5.71,5.71,0,0,1-.39-.47l-.08-.11c-.15-.19-.29-.38-.42-.58a.38.38,0,0,1-.08-.11c-.16-.22-.31-.45-.45-.68s-.4-.67-.58-1-.27-.52-.39-.79a2.1,2.1,0,0,1-.13-.26c-.09-.19-.17-.38-.25-.58,0,0,0,0,0,0-.07-.19-.14-.39-.2-.59a6.45,6.45,0,0,1-.28-1.23.51.51,0,0,0-1,.11,10.13,10.13,0,0,0,.51,2.16c0,.14.09.27.14.4s0,.13.08.19c.13.33.28.65.44,1s.17.33.26.5a12.66,12.66,0,0,1-1.59-1.32l-.35-.36a10.72,10.72,0,0,1-1-1.22,15.55,15.55,0,0,1-2.49-10,10.66,10.66,0,0,1,1.32-3.82l0,0a12.56,12.56,0,0,0,.72,3.31c.2.5.54,1.46,1.06,1.68h0a.16.16,0,0,0,.15-.07c.08-.15-.08-.25-.14-.37a4.56,4.56,0,0,1-.39-1A22.8,22.8,0,0,1,71.92,90a22.21,22.21,0,0,1,.66-4.25,19,19,0,0,1,1.16-3.1L74,82c.1-.18.2-.36.31-.54,0,0,0,0,0,0,0,.49,0,1,0,1.48s0,.7,0,1.05a.5.5,0,0,0,.19.38.48.48,0,0,0,.29.11A.49.49,0,0,0,75.4,84c0-.32-.05-.63-.07-1a41.71,41.71,0,0,1,.73-8.85A24.12,24.12,0,0,1,77.4,69.9a16.12,16.12,0,0,1,2.14-3.82,14.63,14.63,0,0,1,2.34-2.38l-.3.86a14.78,14.78,0,0,0-.83,5.34.2.2,0,0,0,0,.21c.2.21.48-.12.26-.28a26.11,26.11,0,0,1,1.07-3.67,32.63,32.63,0,0,1,2.44-5.6,27.59,27.59,0,0,1,7.1-8A21.58,21.58,0,0,1,95.75,50a11,11,0,0,1,2.6-.66,10,10,0,0,1,1.1-.07.67.67,0,0,0,.46-.15A.63.63,0,0,0,99.54,48a15.8,15.8,0,0,0-2.06.06l.85-.73A18.1,18.1,0,0,1,103,44.42a21,21,0,0,1,15.38.43,25.51,25.51,0,0,1,9.75,6.77.12.12,0,0,0,.11.09.12.12,0,0,0,.1-.19c-.48-1.74-3.61-4.1-5.16-5.08-.33-.22-.67-.44-1-.64s-.58-.36-.88-.53l-.81-.44-.62-.31c-.63-.29-1.27-.56-1.92-.79h0l.51-.11a20.34,20.34,0,0,1,3.4-.17,11.37,11.37,0,0,1,3.82.78,15.11,15.11,0,0,1,1.68.91,14.23,14.23,0,0,1,1.53,1.11h0l-.66-.1-.69-.08a.37.37,0,0,0-.38.33c0,.45.49.38.79.44a21.43,21.43,0,0,1,2.51.5.63.63,0,0,1,.38,0l.71.29h0l0,0a.33.33,0,0,1,.13.07l.35.14a23,23,0,0,1,4.8,3A22.22,22.22,0,0,1,139,52.72a15.1,15.1,0,0,1,3.76,6.63,20.86,20.86,0,0,1,.73,5,6.23,6.23,0,0,1-.07.86v0c-.15-.19-.3-.36-.46-.54l-.5-.51c-.34-.33-.69-.64-1.06-.94s-.5-.39-.77-.57a12.8,12.8,0,0,0-1.19-.7,2.58,2.58,0,0,0-1.2-.39.2.2,0,0,0-.23.3.2.2,0,0,0,.3,0,5.22,5.22,0,0,1,1.17.67,15.68,15.68,0,0,1,4.28,4.68,17.91,17.91,0,0,1,1.5,2.88c.16.4.31.81.45,1.22.07.21.14.41.2.62A25.13,25.13,0,0,1,147,77a26.69,26.69,0,0,1,0,5.58c-.25-.53-.52-1-.82-1.55a.42.42,0,0,0-.59-.11.41.41,0,0,0-.14.54,8.11,8.11,0,0,1,.45.88,38.74,38.74,0,0,1,2,6.12c1.29,5.7.44,9.67-3.55,14a.27.27,0,0,0-.15,0,.26.26,0,0,0-.13.32.26.26,0,0,0,.45.06,5,5,0,0,0,2-1.7c.29-.36.56-.74.82-1.13a18.35,18.35,0,0,1,.09,4.19c0,.34-.06.68-.1,1s-.09.66-.14,1a.47.47,0,0,0-.06-.09.38.38,0,0,0-.13-.09h0l-.09,0a.3.3,0,0,0-.13,0,.35.35,0,0,0-.22.45q.14.39.24.78a28.14,28.14,0,0,1,.66,2.89,12.39,12.39,0,0,1-.17,5.65,14.88,14.88,0,0,1-2.15,4.17,15.5,15.5,0,0,1-1.11,1.32c-.33.36-.71.66-1,1a.15.15,0,0,0-.08.25.15.15,0,0,0,.25-.05,8.68,8.68,0,0,0,2.08-1.68,12.78,12.78,0,0,0,1.08-1.33,19,19,0,0,1-.3,2.27l-.15.75-.15.61c0,.2-.1.4-.16.61-.12.45-.25.9-.4,1.34a5.66,5.66,0,0,1-.2.58c-.09.25-.19.5-.29.75s-.26.58-.41.86c-.05.1-.11.18-.16.28a0,0,0,0,0,0,0l-.45-.38h0c-.17-.14-.35-.29-.53-.42s-.39-.3-.59-.45a15.06,15.06,0,0,0-2.45-1.62.1.1,0,0,0-.09.07s0,.12.08.12c1.35,1.43,2.93,2.64,4.27,4.08l.17.18a33.63,33.63,0,0,1,6.43,10.72,42.41,42.41,0,0,1,2.07,10.7c0,.14,0,.28,0,.42s0,.27,0,.41l0,.69h0l-.3-.26-.4-.31-.24-.16-.08,0a2.26,2.26,0,0,0-.35-.17c-.09,0-.24-.14-.32,0s0,.18.1.14l.12.06.87.92a18.68,18.68,0,0,1,2,2.33,20.3,20.3,0,0,1,2.19,4.52A24.7,24.7,0,0,1,157.06,175.45ZM97.75,117.92a60.65,60.65,0,0,1,44.58,58.43c0,.52,0,1,0,1.56V178A60.53,60.53,0,0,1,29.4,206.68s0,0,0,0a59.79,59.79,0,0,1-7.88-24.45h0c-.19-1.92-.28-3.88-.28-5.85a60.56,60.56,0,0,1,59-60.53v-.06c.34.23.68.45,1,.66a17.73,17.73,0,0,0,2.17,1.11c.37.16.75.31,1.13.45s.72.25,1.09.35l.13,0c.36.11.73.21,1.1.29l.2,0c.32.08.65.14,1,.19l.12,0c.4.07.8.12,1.2.17a18.58,18.58,0,0,0,2,.11l.87,0,.66-.05a1.07,1.07,0,0,0,.25,0,4.81,4.81,0,0,0,.65-.08,8.74,8.74,0,0,0,.87-.14c.32-.06.64-.13,1-.22l.61-.17a14.23,14.23,0,0,0,1.54-.57Zm45.22,64v0c-.17.41-.35.81-.54,1.22s-.44,1-.66,1.42A60.53,60.53,0,0,1,29.4,206.68s0,0,0,0l-1-.91-1.1-1.07-.27-.26A61.81,61.81,0,0,0,71.09,237h0c1.29.22,2.58.41,3.89.55.68.07,1.36.14,2,.19l1.57.1c.52,0,1,.05,1.57.06l1.5,0h.09c1.06,0,2.12,0,3.16-.08,1.51-.08,3-.21,4.48-.4l.19,0c.89-.11,1.77-.25,2.65-.4s1.75-.32,2.62-.51c1.3-.28,2.57-.6,3.83-1s2.51-.76,3.73-1.2h0c.69-.25,1.38-.51,2.06-.78a59.55,59.55,0,0,0,7.83-3.8,61.57,61.57,0,0,0,30.72-48.05C143.05,181.75,143,181.83,143,181.92Zm-13.7-95.5c-.07-.61-.18-1.23-.31-1.83,0-.15-.06-.3-.1-.44s-.08-.32-.13-.48a.35.35,0,0,0-.44-.21l0,0a.16.16,0,0,0-.08.06.1.1,0,0,0,0,.06.2.2,0,0,0,0,.08.36.36,0,0,0,0,.1.22.22,0,0,0,0,.08c.1.42.19.84.25,1.27a15.31,15.31,0,0,1,.17,2,22,22,0,0,1-.64,5.59,12.63,12.63,0,0,1-3,5.66,6.91,6.91,0,0,1-3.13,2.09.15.15,0,0,0-.22.16.16.16,0,0,0,.22.13h.16l.22,0a3.78,3.78,0,0,0,.83-.24l.34-.16a2,2,0,0,0,.32-.18l.32-.2.3-.22c.18-.13.36-.27.53-.42l.32-.3a.43.43,0,0,0,0,.11l0,.12c0,.2-.09.41-.15.61a5.39,5.39,0,0,1-.22.64s0,.07,0,.11a.84.84,0,0,1-.08.2,3.38,3.38,0,0,1-.18.44l-.17.36c-.11.2-.22.41-.34.61a9.83,9.83,0,0,1-1,1.38,6,6,0,0,1-.61.62q-.32.3-.66.57a12.82,12.82,0,0,1-4.57,2.08,16,16,0,0,1-3,.48,6.26,6.26,0,0,1-.75,0,3.37,3.37,0,0,0-1,.08.19.19,0,0,0-.24.2.2.2,0,0,0,.26.2l.4.15.32.09h0a2.84,2.84,0,0,0,.49.1l.43,0c.2,0,.41,0,.61,0h.2c-.08.16-.15.32-.22.48h0c-.15.32-.32.64-.5,1-.09.15-.18.31-.28.46a10.77,10.77,0,0,1-.61.89c-.22.28-.46.55-.71.81s-.37.34-.56.5a1.94,1.94,0,0,1-.29.23l-.15.12a5.6,5.6,0,0,1-.49.36l-.59.38h0a3.07,3.07,0,0,1-.39.23l-.58.31-.16.07a6.11,6.11,0,0,1-.58.27l-.4.17-.6.22-.43.14a5.76,5.76,0,0,1-.59.18c.63.27,1.25.56,1.86.85l.64-.26a6.28,6.28,0,0,0,.59-.27l.06,0a5.12,5.12,0,0,0,.57-.3c.21-.11.42-.23.62-.36a13.21,13.21,0,0,0,5-6.28l.1-.24h0l.68-.11c.45-.09.9-.19,1.35-.31l.66-.19.87-.28a9.53,9.53,0,0,0,6-6.12,10.44,10.44,0,0,0,.38-1.56c.09-.53.14-1.06.18-1.6a14.16,14.16,0,0,0,2.92-6.2A17.83,17.83,0,0,0,129.27,86.42Zm13.53,82c0,.28,0,.56,0,.85s0,.56,0,.84a59.52,59.52,0,0,1-.52,7.83V178A60.53,60.53,0,0,1,29.4,206.68s0,0,0,0a59.79,59.79,0,0,1-7.88-24.45h0A58.38,58.38,0,0,1,20.33,173c-.06,1.12-.09,2.25-.09,3.38A61.16,61.16,0,0,0,27,204.41h0A61.81,61.81,0,0,0,71.09,237h0c1.29.22,2.58.41,3.89.55.68.07,1.36.14,2,.19l1.57.1c.52,0,1,.05,1.57.06l1.5,0h.09c1.06,0,2.12,0,3.16-.08,1.51-.08,3-.21,4.48-.4l.19,0c.89-.11,1.77-.25,2.65-.4s1.75-.32,2.62-.51c1.3-.28,2.57-.6,3.83-1s2.51-.76,3.73-1.2h0c.69-.25,1.38-.51,2.06-.78a59.55,59.55,0,0,0,7.83-3.8,61.57,61.57,0,0,0,30.72-48.05h0c.15-1.75.23-3.52.23-5.31A61.63,61.63,0,0,0,142.8,168.39ZM128.73,83.67a.35.35,0,0,0-.44-.21l0,0a6.47,6.47,0,0,1,.61.67C128.82,84,128.78,83.83,128.73,83.67Z"/>
      <polygon points="156.67 159.13 156.67 159.13 156.67 159.13 156.67 159.13"/>
      <path d="M55.46,239.15h0Z"/>
      <path d="M116.49,234.44h0a.78.78,0,0,0,.21,0,.75.75,0,0,1-.21,0Z"/>
      <path d="M116.75,234.4h0Z"/>
      <path class="d" d="M79.06,114.88A61.54,61.54,0,0,0,20.33,173c0-1-.07-1.92-.07-2.89,0-30.53,23.18-55.76,53.2-59.64a10,10,0,0,0,2.83,1.6,17.4,17.4,0,0,0,1.23,1.45A18.23,18.23,0,0,0,79.06,114.88Z"/>
      <path class="d" d="M142.8,168.39A61.7,61.7,0,0,0,104.23,119q-2.39-.93-4.88-1.67l-.32-.1.09,0,.63-.38.54-.37a10.6,10.6,0,0,0,2,.37c.33,0,.67,0,1,0a14.22,14.22,0,0,0,5.07-.93A60.11,60.11,0,0,1,142.8,168.39Z"/>
      <path class="e" d="M25.22,177.84a56.65,56.65,0,1,0,56.65-56.65A56.71,56.71,0,0,0,25.22,177.84Zm108.66-19.77A55.64,55.64,0,1,1,26.79,185.78a54.77,54.77,0,0,1-.57-7.94,55.64,55.64,0,0,1,107.66-19.77Z"/>
    </g>
  </g>
</svg>
